<?xml version="1.0" encoding="utf-8" standalone="no"?>
<!DOCTYPE svg PUBLIC "-//W3C//DTD SVG 1.1//EN"
  "http://www.w3.org/Graphics/SVG/1.1/DTD/svg11.dtd">
<!-- Created with matplotlib (https://matplotlib.org/) -->
<svg height="345.6pt" version="1.1" viewBox="0 0 460.8 345.6" width="460.8pt" xmlns="http://www.w3.org/2000/svg" xmlns:xlink="http://www.w3.org/1999/xlink">
 <metadata>
  <rdf:RDF xmlns:cc="http://creativecommons.org/ns#" xmlns:dc="http://purl.org/dc/elements/1.1/" xmlns:rdf="http://www.w3.org/1999/02/22-rdf-syntax-ns#">
   <cc:Work>
    <dc:type rdf:resource="http://purl.org/dc/dcmitype/StillImage"/>
    <dc:date>2021-04-25T13:50:36.722705</dc:date>
    <dc:format>image/svg+xml</dc:format>
    <dc:creator>
     <cc:Agent>
      <dc:title>Matplotlib v3.3.4, https://matplotlib.org/</dc:title>
     </cc:Agent>
    </dc:creator>
   </cc:Work>
  </rdf:RDF>
 </metadata>
 <defs>
  <style type="text/css">*{stroke-linecap:butt;stroke-linejoin:round;}</style>
 </defs>
 <g id="figure_1">
  <g id="patch_1">
   <path d="M 0 345.6 
L 460.8 345.6 
L 460.8 0 
L 0 0 
z
" style="fill:#ffffff;"/>
  </g>
  <g id="axes_1">
   <g id="patch_2">
    <path d="M 57.6 307.584 
L 414.72 307.584 
L 414.72 41.472 
L 57.6 41.472 
z
" style="fill:#ffffff;"/>
   </g>
   <g id="matplotlib.axis_1">
    <g id="xtick_1">
     <g id="line2d_1">
      <defs>
       <path d="M 0 0 
L 0 3.5 
" id="me08d1d4de3" style="stroke:#000000;stroke-width:0.8;"/>
      </defs>
      <g>
       <use style="stroke:#000000;stroke-width:0.8;" x="73.832727" xlink:href="#me08d1d4de3" y="307.584"/>
      </g>
     </g>
     <g id="text_1">
      <!-- 0 -->
      <g transform="translate(70.651477 322.182437)scale(0.1 -0.1)">
       <defs>
        <path d="M 31.78125 66.40625 
Q 24.171875 66.40625 20.328125 58.90625 
Q 16.5 51.421875 16.5 36.375 
Q 16.5 21.390625 20.328125 13.890625 
Q 24.171875 6.390625 31.78125 6.390625 
Q 39.453125 6.390625 43.28125 13.890625 
Q 47.125 21.390625 47.125 36.375 
Q 47.125 51.421875 43.28125 58.90625 
Q 39.453125 66.40625 31.78125 66.40625 
z
M 31.78125 74.21875 
Q 44.046875 74.21875 50.515625 64.515625 
Q 56.984375 54.828125 56.984375 36.375 
Q 56.984375 17.96875 50.515625 8.265625 
Q 44.046875 -1.421875 31.78125 -1.421875 
Q 19.53125 -1.421875 13.0625 8.265625 
Q 6.59375 17.96875 6.59375 36.375 
Q 6.59375 54.828125 13.0625 64.515625 
Q 19.53125 74.21875 31.78125 74.21875 
z
" id="DejaVuSans-48"/>
       </defs>
       <use xlink:href="#DejaVuSans-48"/>
      </g>
     </g>
    </g>
    <g id="xtick_2">
     <g id="line2d_2">
      <g>
       <use style="stroke:#000000;stroke-width:0.8;" x="138.763636" xlink:href="#me08d1d4de3" y="307.584"/>
      </g>
     </g>
     <g id="text_2">
      <!-- 20 -->
      <g transform="translate(132.401136 322.182437)scale(0.1 -0.1)">
       <defs>
        <path d="M 19.1875 8.296875 
L 53.609375 8.296875 
L 53.609375 0 
L 7.328125 0 
L 7.328125 8.296875 
Q 12.9375 14.109375 22.625 23.890625 
Q 32.328125 33.6875 34.8125 36.53125 
Q 39.546875 41.84375 41.421875 45.53125 
Q 43.3125 49.21875 43.3125 52.78125 
Q 43.3125 58.59375 39.234375 62.25 
Q 35.15625 65.921875 28.609375 65.921875 
Q 23.96875 65.921875 18.8125 64.3125 
Q 13.671875 62.703125 7.8125 59.421875 
L 7.8125 69.390625 
Q 13.765625 71.78125 18.9375 73 
Q 24.125 74.21875 28.421875 74.21875 
Q 39.75 74.21875 46.484375 68.546875 
Q 53.21875 62.890625 53.21875 53.421875 
Q 53.21875 48.921875 51.53125 44.890625 
Q 49.859375 40.875 45.40625 35.40625 
Q 44.1875 33.984375 37.640625 27.21875 
Q 31.109375 20.453125 19.1875 8.296875 
z
" id="DejaVuSans-50"/>
       </defs>
       <use xlink:href="#DejaVuSans-50"/>
       <use x="63.623047" xlink:href="#DejaVuSans-48"/>
      </g>
     </g>
    </g>
    <g id="xtick_3">
     <g id="line2d_3">
      <g>
       <use style="stroke:#000000;stroke-width:0.8;" x="203.694545" xlink:href="#me08d1d4de3" y="307.584"/>
      </g>
     </g>
     <g id="text_3">
      <!-- 40 -->
      <g transform="translate(197.332045 322.182437)scale(0.1 -0.1)">
       <defs>
        <path d="M 37.796875 64.3125 
L 12.890625 25.390625 
L 37.796875 25.390625 
z
M 35.203125 72.90625 
L 47.609375 72.90625 
L 47.609375 25.390625 
L 58.015625 25.390625 
L 58.015625 17.1875 
L 47.609375 17.1875 
L 47.609375 0 
L 37.796875 0 
L 37.796875 17.1875 
L 4.890625 17.1875 
L 4.890625 26.703125 
z
" id="DejaVuSans-52"/>
       </defs>
       <use xlink:href="#DejaVuSans-52"/>
       <use x="63.623047" xlink:href="#DejaVuSans-48"/>
      </g>
     </g>
    </g>
    <g id="xtick_4">
     <g id="line2d_4">
      <g>
       <use style="stroke:#000000;stroke-width:0.8;" x="268.625455" xlink:href="#me08d1d4de3" y="307.584"/>
      </g>
     </g>
     <g id="text_4">
      <!-- 60 -->
      <g transform="translate(262.262955 322.182437)scale(0.1 -0.1)">
       <defs>
        <path d="M 33.015625 40.375 
Q 26.375 40.375 22.484375 35.828125 
Q 18.609375 31.296875 18.609375 23.390625 
Q 18.609375 15.53125 22.484375 10.953125 
Q 26.375 6.390625 33.015625 6.390625 
Q 39.65625 6.390625 43.53125 10.953125 
Q 47.40625 15.53125 47.40625 23.390625 
Q 47.40625 31.296875 43.53125 35.828125 
Q 39.65625 40.375 33.015625 40.375 
z
M 52.59375 71.296875 
L 52.59375 62.3125 
Q 48.875 64.0625 45.09375 64.984375 
Q 41.3125 65.921875 37.59375 65.921875 
Q 27.828125 65.921875 22.671875 59.328125 
Q 17.53125 52.734375 16.796875 39.40625 
Q 19.671875 43.65625 24.015625 45.921875 
Q 28.375 48.1875 33.59375 48.1875 
Q 44.578125 48.1875 50.953125 41.515625 
Q 57.328125 34.859375 57.328125 23.390625 
Q 57.328125 12.15625 50.6875 5.359375 
Q 44.046875 -1.421875 33.015625 -1.421875 
Q 20.359375 -1.421875 13.671875 8.265625 
Q 6.984375 17.96875 6.984375 36.375 
Q 6.984375 53.65625 15.1875 63.9375 
Q 23.390625 74.21875 37.203125 74.21875 
Q 40.921875 74.21875 44.703125 73.484375 
Q 48.484375 72.75 52.59375 71.296875 
z
" id="DejaVuSans-54"/>
       </defs>
       <use xlink:href="#DejaVuSans-54"/>
       <use x="63.623047" xlink:href="#DejaVuSans-48"/>
      </g>
     </g>
    </g>
    <g id="xtick_5">
     <g id="line2d_5">
      <g>
       <use style="stroke:#000000;stroke-width:0.8;" x="333.556364" xlink:href="#me08d1d4de3" y="307.584"/>
      </g>
     </g>
     <g id="text_5">
      <!-- 80 -->
      <g transform="translate(327.193864 322.182437)scale(0.1 -0.1)">
       <defs>
        <path d="M 31.78125 34.625 
Q 24.75 34.625 20.71875 30.859375 
Q 16.703125 27.09375 16.703125 20.515625 
Q 16.703125 13.921875 20.71875 10.15625 
Q 24.75 6.390625 31.78125 6.390625 
Q 38.8125 6.390625 42.859375 10.171875 
Q 46.921875 13.96875 46.921875 20.515625 
Q 46.921875 27.09375 42.890625 30.859375 
Q 38.875 34.625 31.78125 34.625 
z
M 21.921875 38.8125 
Q 15.578125 40.375 12.03125 44.71875 
Q 8.5 49.078125 8.5 55.328125 
Q 8.5 64.0625 14.71875 69.140625 
Q 20.953125 74.21875 31.78125 74.21875 
Q 42.671875 74.21875 48.875 69.140625 
Q 55.078125 64.0625 55.078125 55.328125 
Q 55.078125 49.078125 51.53125 44.71875 
Q 48 40.375 41.703125 38.8125 
Q 48.828125 37.15625 52.796875 32.3125 
Q 56.78125 27.484375 56.78125 20.515625 
Q 56.78125 9.90625 50.3125 4.234375 
Q 43.84375 -1.421875 31.78125 -1.421875 
Q 19.734375 -1.421875 13.25 4.234375 
Q 6.78125 9.90625 6.78125 20.515625 
Q 6.78125 27.484375 10.78125 32.3125 
Q 14.796875 37.15625 21.921875 38.8125 
z
M 18.3125 54.390625 
Q 18.3125 48.734375 21.84375 45.5625 
Q 25.390625 42.390625 31.78125 42.390625 
Q 38.140625 42.390625 41.71875 45.5625 
Q 45.3125 48.734375 45.3125 54.390625 
Q 45.3125 60.0625 41.71875 63.234375 
Q 38.140625 66.40625 31.78125 66.40625 
Q 25.390625 66.40625 21.84375 63.234375 
Q 18.3125 60.0625 18.3125 54.390625 
z
" id="DejaVuSans-56"/>
       </defs>
       <use xlink:href="#DejaVuSans-56"/>
       <use x="63.623047" xlink:href="#DejaVuSans-48"/>
      </g>
     </g>
    </g>
    <g id="xtick_6">
     <g id="line2d_6">
      <g>
       <use style="stroke:#000000;stroke-width:0.8;" x="398.487273" xlink:href="#me08d1d4de3" y="307.584"/>
      </g>
     </g>
     <g id="text_6">
      <!-- 100 -->
      <g transform="translate(388.943523 322.182437)scale(0.1 -0.1)">
       <defs>
        <path d="M 12.40625 8.296875 
L 28.515625 8.296875 
L 28.515625 63.921875 
L 10.984375 60.40625 
L 10.984375 69.390625 
L 28.421875 72.90625 
L 38.28125 72.90625 
L 38.28125 8.296875 
L 54.390625 8.296875 
L 54.390625 0 
L 12.40625 0 
z
" id="DejaVuSans-49"/>
       </defs>
       <use xlink:href="#DejaVuSans-49"/>
       <use x="63.623047" xlink:href="#DejaVuSans-48"/>
       <use x="127.246094" xlink:href="#DejaVuSans-48"/>
      </g>
     </g>
    </g>
    <g id="text_7">
     <!-- time -->
     <g transform="translate(224.863906 335.860562)scale(0.1 -0.1)">
      <defs>
       <path d="M 18.3125 70.21875 
L 18.3125 54.6875 
L 36.8125 54.6875 
L 36.8125 47.703125 
L 18.3125 47.703125 
L 18.3125 18.015625 
Q 18.3125 11.328125 20.140625 9.421875 
Q 21.96875 7.515625 27.59375 7.515625 
L 36.8125 7.515625 
L 36.8125 0 
L 27.59375 0 
Q 17.1875 0 13.234375 3.875 
Q 9.28125 7.765625 9.28125 18.015625 
L 9.28125 47.703125 
L 2.6875 47.703125 
L 2.6875 54.6875 
L 9.28125 54.6875 
L 9.28125 70.21875 
z
" id="DejaVuSans-116"/>
       <path d="M 9.421875 54.6875 
L 18.40625 54.6875 
L 18.40625 0 
L 9.421875 0 
z
M 9.421875 75.984375 
L 18.40625 75.984375 
L 18.40625 64.59375 
L 9.421875 64.59375 
z
" id="DejaVuSans-105"/>
       <path d="M 52 44.1875 
Q 55.375 50.25 60.0625 53.125 
Q 64.75 56 71.09375 56 
Q 79.640625 56 84.28125 50.015625 
Q 88.921875 44.046875 88.921875 33.015625 
L 88.921875 0 
L 79.890625 0 
L 79.890625 32.71875 
Q 79.890625 40.578125 77.09375 44.375 
Q 74.3125 48.1875 68.609375 48.1875 
Q 61.625 48.1875 57.5625 43.546875 
Q 53.515625 38.921875 53.515625 30.90625 
L 53.515625 0 
L 44.484375 0 
L 44.484375 32.71875 
Q 44.484375 40.625 41.703125 44.40625 
Q 38.921875 48.1875 33.109375 48.1875 
Q 26.21875 48.1875 22.15625 43.53125 
Q 18.109375 38.875 18.109375 30.90625 
L 18.109375 0 
L 9.078125 0 
L 9.078125 54.6875 
L 18.109375 54.6875 
L 18.109375 46.1875 
Q 21.1875 51.21875 25.484375 53.609375 
Q 29.78125 56 35.6875 56 
Q 41.65625 56 45.828125 52.96875 
Q 50 49.953125 52 44.1875 
z
" id="DejaVuSans-109"/>
       <path d="M 56.203125 29.59375 
L 56.203125 25.203125 
L 14.890625 25.203125 
Q 15.484375 15.921875 20.484375 11.0625 
Q 25.484375 6.203125 34.421875 6.203125 
Q 39.59375 6.203125 44.453125 7.46875 
Q 49.3125 8.734375 54.109375 11.28125 
L 54.109375 2.78125 
Q 49.265625 0.734375 44.1875 -0.34375 
Q 39.109375 -1.421875 33.890625 -1.421875 
Q 20.796875 -1.421875 13.15625 6.1875 
Q 5.515625 13.8125 5.515625 26.8125 
Q 5.515625 40.234375 12.765625 48.109375 
Q 20.015625 56 32.328125 56 
Q 43.359375 56 49.78125 48.890625 
Q 56.203125 41.796875 56.203125 29.59375 
z
M 47.21875 32.234375 
Q 47.125 39.59375 43.09375 43.984375 
Q 39.0625 48.390625 32.421875 48.390625 
Q 24.90625 48.390625 20.390625 44.140625 
Q 15.875 39.890625 15.1875 32.171875 
z
" id="DejaVuSans-101"/>
      </defs>
      <use xlink:href="#DejaVuSans-116"/>
      <use x="39.208984" xlink:href="#DejaVuSans-105"/>
      <use x="66.992188" xlink:href="#DejaVuSans-109"/>
      <use x="164.404297" xlink:href="#DejaVuSans-101"/>
     </g>
    </g>
   </g>
   <g id="matplotlib.axis_2">
    <g id="ytick_1">
     <g id="line2d_7">
      <defs>
       <path d="M 0 0 
L -3.5 0 
" id="mcac723aca3" style="stroke:#000000;stroke-width:0.8;"/>
      </defs>
      <g>
       <use style="stroke:#000000;stroke-width:0.8;" x="57.6" xlink:href="#mcac723aca3" y="281.833343"/>
      </g>
     </g>
     <g id="text_8">
      <!-- −0.15 -->
      <g transform="translate(19.954687 285.632562)scale(0.1 -0.1)">
       <defs>
        <path d="M 10.59375 35.5 
L 73.1875 35.5 
L 73.1875 27.203125 
L 10.59375 27.203125 
z
" id="DejaVuSans-8722"/>
        <path d="M 10.6875 12.40625 
L 21 12.40625 
L 21 0 
L 10.6875 0 
z
" id="DejaVuSans-46"/>
        <path d="M 10.796875 72.90625 
L 49.515625 72.90625 
L 49.515625 64.59375 
L 19.828125 64.59375 
L 19.828125 46.734375 
Q 21.96875 47.46875 24.109375 47.828125 
Q 26.265625 48.1875 28.421875 48.1875 
Q 40.625 48.1875 47.75 41.5 
Q 54.890625 34.8125 54.890625 23.390625 
Q 54.890625 11.625 47.5625 5.09375 
Q 40.234375 -1.421875 26.90625 -1.421875 
Q 22.3125 -1.421875 17.546875 -0.640625 
Q 12.796875 0.140625 7.71875 1.703125 
L 7.71875 11.625 
Q 12.109375 9.234375 16.796875 8.0625 
Q 21.484375 6.890625 26.703125 6.890625 
Q 35.15625 6.890625 40.078125 11.328125 
Q 45.015625 15.765625 45.015625 23.390625 
Q 45.015625 31 40.078125 35.4375 
Q 35.15625 39.890625 26.703125 39.890625 
Q 22.75 39.890625 18.8125 39.015625 
Q 14.890625 38.140625 10.796875 36.28125 
z
" id="DejaVuSans-53"/>
       </defs>
       <use xlink:href="#DejaVuSans-8722"/>
       <use x="83.789062" xlink:href="#DejaVuSans-48"/>
       <use x="147.412109" xlink:href="#DejaVuSans-46"/>
       <use x="179.199219" xlink:href="#DejaVuSans-49"/>
       <use x="242.822266" xlink:href="#DejaVuSans-53"/>
      </g>
     </g>
    </g>
    <g id="ytick_2">
     <g id="line2d_8">
      <g>
       <use style="stroke:#000000;stroke-width:0.8;" x="57.6" xlink:href="#mcac723aca3" y="237.467975"/>
      </g>
     </g>
     <g id="text_9">
      <!-- −0.10 -->
      <g transform="translate(19.954687 241.267194)scale(0.1 -0.1)">
       <use xlink:href="#DejaVuSans-8722"/>
       <use x="83.789062" xlink:href="#DejaVuSans-48"/>
       <use x="147.412109" xlink:href="#DejaVuSans-46"/>
       <use x="179.199219" xlink:href="#DejaVuSans-49"/>
       <use x="242.822266" xlink:href="#DejaVuSans-48"/>
      </g>
     </g>
    </g>
    <g id="ytick_3">
     <g id="line2d_9">
      <g>
       <use style="stroke:#000000;stroke-width:0.8;" x="57.6" xlink:href="#mcac723aca3" y="193.102607"/>
      </g>
     </g>
     <g id="text_10">
      <!-- −0.05 -->
      <g transform="translate(19.954687 196.901826)scale(0.1 -0.1)">
       <use xlink:href="#DejaVuSans-8722"/>
       <use x="83.789062" xlink:href="#DejaVuSans-48"/>
       <use x="147.412109" xlink:href="#DejaVuSans-46"/>
       <use x="179.199219" xlink:href="#DejaVuSans-48"/>
       <use x="242.822266" xlink:href="#DejaVuSans-53"/>
      </g>
     </g>
    </g>
    <g id="ytick_4">
     <g id="line2d_10">
      <g>
       <use style="stroke:#000000;stroke-width:0.8;" x="57.6" xlink:href="#mcac723aca3" y="148.73724"/>
      </g>
     </g>
     <g id="text_11">
      <!-- 0.00 -->
      <g transform="translate(28.334375 152.536458)scale(0.1 -0.1)">
       <use xlink:href="#DejaVuSans-48"/>
       <use x="63.623047" xlink:href="#DejaVuSans-46"/>
       <use x="95.410156" xlink:href="#DejaVuSans-48"/>
       <use x="159.033203" xlink:href="#DejaVuSans-48"/>
      </g>
     </g>
    </g>
    <g id="ytick_5">
     <g id="line2d_11">
      <g>
       <use style="stroke:#000000;stroke-width:0.8;" x="57.6" xlink:href="#mcac723aca3" y="104.371872"/>
      </g>
     </g>
     <g id="text_12">
      <!-- 0.05 -->
      <g transform="translate(28.334375 108.171091)scale(0.1 -0.1)">
       <use xlink:href="#DejaVuSans-48"/>
       <use x="63.623047" xlink:href="#DejaVuSans-46"/>
       <use x="95.410156" xlink:href="#DejaVuSans-48"/>
       <use x="159.033203" xlink:href="#DejaVuSans-53"/>
      </g>
     </g>
    </g>
    <g id="ytick_6">
     <g id="line2d_12">
      <g>
       <use style="stroke:#000000;stroke-width:0.8;" x="57.6" xlink:href="#mcac723aca3" y="60.006504"/>
      </g>
     </g>
     <g id="text_13">
      <!-- 0.10 -->
      <g transform="translate(28.334375 63.805723)scale(0.1 -0.1)">
       <use xlink:href="#DejaVuSans-48"/>
       <use x="63.623047" xlink:href="#DejaVuSans-46"/>
       <use x="95.410156" xlink:href="#DejaVuSans-49"/>
       <use x="159.033203" xlink:href="#DejaVuSans-48"/>
      </g>
     </g>
    </g>
    <g id="text_14">
     <!-- noise -->
     <g transform="translate(13.875 187.826437)rotate(-90)scale(0.1 -0.1)">
      <defs>
       <path d="M 54.890625 33.015625 
L 54.890625 0 
L 45.90625 0 
L 45.90625 32.71875 
Q 45.90625 40.484375 42.875 44.328125 
Q 39.84375 48.1875 33.796875 48.1875 
Q 26.515625 48.1875 22.3125 43.546875 
Q 18.109375 38.921875 18.109375 30.90625 
L 18.109375 0 
L 9.078125 0 
L 9.078125 54.6875 
L 18.109375 54.6875 
L 18.109375 46.1875 
Q 21.34375 51.125 25.703125 53.5625 
Q 30.078125 56 35.796875 56 
Q 45.21875 56 50.046875 50.171875 
Q 54.890625 44.34375 54.890625 33.015625 
z
" id="DejaVuSans-110"/>
       <path d="M 30.609375 48.390625 
Q 23.390625 48.390625 19.1875 42.75 
Q 14.984375 37.109375 14.984375 27.296875 
Q 14.984375 17.484375 19.15625 11.84375 
Q 23.34375 6.203125 30.609375 6.203125 
Q 37.796875 6.203125 41.984375 11.859375 
Q 46.1875 17.53125 46.1875 27.296875 
Q 46.1875 37.015625 41.984375 42.703125 
Q 37.796875 48.390625 30.609375 48.390625 
z
M 30.609375 56 
Q 42.328125 56 49.015625 48.375 
Q 55.71875 40.765625 55.71875 27.296875 
Q 55.71875 13.875 49.015625 6.21875 
Q 42.328125 -1.421875 30.609375 -1.421875 
Q 18.84375 -1.421875 12.171875 6.21875 
Q 5.515625 13.875 5.515625 27.296875 
Q 5.515625 40.765625 12.171875 48.375 
Q 18.84375 56 30.609375 56 
z
" id="DejaVuSans-111"/>
       <path d="M 44.28125 53.078125 
L 44.28125 44.578125 
Q 40.484375 46.53125 36.375 47.5 
Q 32.28125 48.484375 27.875 48.484375 
Q 21.1875 48.484375 17.84375 46.4375 
Q 14.5 44.390625 14.5 40.28125 
Q 14.5 37.15625 16.890625 35.375 
Q 19.28125 33.59375 26.515625 31.984375 
L 29.59375 31.296875 
Q 39.15625 29.25 43.1875 25.515625 
Q 47.21875 21.78125 47.21875 15.09375 
Q 47.21875 7.46875 41.1875 3.015625 
Q 35.15625 -1.421875 24.609375 -1.421875 
Q 20.21875 -1.421875 15.453125 -0.5625 
Q 10.6875 0.296875 5.421875 2 
L 5.421875 11.28125 
Q 10.40625 8.6875 15.234375 7.390625 
Q 20.0625 6.109375 24.8125 6.109375 
Q 31.15625 6.109375 34.5625 8.28125 
Q 37.984375 10.453125 37.984375 14.40625 
Q 37.984375 18.0625 35.515625 20.015625 
Q 33.0625 21.96875 24.703125 23.78125 
L 21.578125 24.515625 
Q 13.234375 26.265625 9.515625 29.90625 
Q 5.8125 33.546875 5.8125 39.890625 
Q 5.8125 47.609375 11.28125 51.796875 
Q 16.75 56 26.8125 56 
Q 31.78125 56 36.171875 55.265625 
Q 40.578125 54.546875 44.28125 53.078125 
z
" id="DejaVuSans-115"/>
      </defs>
      <use xlink:href="#DejaVuSans-110"/>
      <use x="63.378906" xlink:href="#DejaVuSans-111"/>
      <use x="124.560547" xlink:href="#DejaVuSans-105"/>
      <use x="152.34375" xlink:href="#DejaVuSans-115"/>
      <use x="204.443359" xlink:href="#DejaVuSans-101"/>
     </g>
    </g>
   </g>
   <g id="line2d_13">
    <path clip-path="url(#p6ce82f46b4)" d="M 73.832727 148.73724 
L 74.157382 140.870494 
L 74.806691 155.572487 
L 75.456 153.585136 
L 75.780655 146.546074 
L 76.105309 142.912265 
L 76.429964 145.116342 
L 76.754618 144.570598 
L 77.403927 134.799795 
L 77.728582 135.185635 
L 78.053236 130.747832 
L 78.377891 130.938606 
L 78.702545 125.995073 
L 79.0272 117.475592 
L 79.351855 116.692441 
L 79.676509 121.464215 
L 80.650473 106.337614 
L 80.975127 109.071701 
L 81.624436 118.892006 
L 81.949091 119.232014 
L 82.5984 104.73162 
L 83.247709 93.622031 
L 83.572364 99.856156 
L 83.897018 96.678276 
L 84.221673 92.030282 
L 84.546327 98.131667 
L 84.870982 101.540473 
L 85.195636 98.480049 
L 85.520291 104.420901 
L 86.1696 97.219206 
L 86.818909 113.000727 
L 87.143564 111.069864 
L 87.468218 104.399509 
L 87.792873 111.436194 
L 88.117527 115.707047 
L 88.442182 123.258147 
L 89.091491 113.696357 
L 89.416145 120.304203 
L 90.065455 106.316498 
L 90.390109 104.288628 
L 90.714764 97.588816 
L 91.039418 101.038365 
L 91.364073 105.940289 
L 92.013382 100.696463 
L 92.662691 104.766695 
L 92.987345 98.992101 
L 93.312 96.926477 
L 93.636655 98.646039 
L 93.961309 102.302003 
L 94.285964 99.089633 
L 94.935273 111.071394 
L 95.259927 108.992657 
L 95.584582 103.427129 
L 95.909236 107.868851 
L 96.233891 114.773305 
L 96.558545 110.753935 
L 96.8832 108.479895 
L 97.207855 100.029758 
L 97.532509 99.822637 
L 97.857164 93.721748 
L 98.181818 85.485411 
L 98.506473 80.248123 
L 98.831127 87.660344 
L 99.155782 86.133843 
L 99.480436 89.246446 
L 100.129745 86.414433 
L 100.4544 88.835629 
L 100.779055 94.79028 
L 101.103709 94.806249 
L 101.428364 90.949125 
L 101.753018 92.111224 
L 102.077673 90.936178 
L 102.402327 84.292552 
L 102.726982 85.076632 
L 103.051636 87.647644 
L 103.376291 93.356311 
L 103.700945 84.865386 
L 104.0256 80.72556 
L 104.350255 79.294191 
L 104.674909 79.346311 
L 104.999564 84.735608 
L 105.324218 79.032513 
L 105.648873 87.772775 
L 105.973527 83.625843 
L 106.298182 85.300678 
L 106.947491 90.887753 
L 107.272145 92.113765 
L 107.5968 96.360069 
L 107.921455 105.04494 
L 108.246109 106.242511 
L 108.570764 108.824317 
L 108.895418 113.007898 
L 109.220073 106.30381 
L 109.544727 113.763149 
L 110.843345 88.969108 
L 111.168 92.8216 
L 111.492655 98.222517 
L 111.817309 96.227084 
L 112.141964 90.520132 
L 112.466618 89.190813 
L 112.791273 80.960996 
L 113.115927 76.057807 
L 113.440582 72.865676 
L 113.765236 77.145023 
L 114.089891 72.631304 
L 114.414545 81.218771 
L 114.7392 80.693664 
L 116.037818 58.82498 
L 116.362473 60.245984 
L 116.687127 66.35456 
L 117.336436 80.674362 
L 117.661091 76.43597 
L 117.985745 82.812471 
L 118.3104 74.572656 
L 118.635055 78.71514 
L 118.959709 77.689978 
L 119.284364 78.779845 
L 119.933673 93.137685 
L 120.582982 77.391704 
L 120.907636 83.53653 
L 121.232291 84.903407 
L 121.556945 92.556977 
L 121.8816 94.892286 
L 122.206255 86.047212 
L 122.530909 86.045078 
L 122.855564 77.278761 
L 123.180218 79.090442 
L 124.154182 67.095446 
L 124.478836 69.238939 
L 125.128145 58.149815 
L 125.4528 66.754211 
L 125.777455 64.244135 
L 126.102109 60.601295 
L 126.426764 61.460948 
L 126.751418 63.768162 
L 127.076073 59.928027 
L 127.400727 67.630542 
L 127.725382 60.96502 
L 128.050036 63.815342 
L 128.699345 74.855236 
L 129.024 78.508914 
L 129.997964 58.09414 
L 130.322618 66.369426 
L 130.647273 70.929729 
L 130.971927 67.247071 
L 131.621236 77.133154 
L 131.945891 69.748003 
L 132.270545 69.498283 
L 132.5952 66.804038 
L 132.919855 61.897836 
L 133.244509 54.269033 
L 133.569164 62.637307 
L 133.893818 65.694684 
L 134.218473 62.806542 
L 134.543127 68.405857 
L 134.867782 71.988405 
L 135.192436 65.830089 
L 135.517091 72.144165 
L 135.841745 71.901767 
L 136.1664 68.372691 
L 136.491055 72.210184 
L 137.140364 60.077748 
L 137.465018 60.444721 
L 137.789673 63.559447 
L 138.114327 61.798162 
L 138.438982 61.753092 
L 138.763636 53.568 
L 139.088291 55.78726 
L 139.412945 54.708615 
L 139.7376 61.937219 
L 140.062255 63.087765 
L 140.386909 68.084015 
L 140.711564 76.089719 
L 141.036218 80.309866 
L 141.360873 80.86555 
L 141.685527 81.11952 
L 142.010182 81.085003 
L 142.659491 74.500284 
L 142.984145 79.482514 
L 143.633455 96.189957 
L 144.607418 110.476284 
L 144.932073 107.888843 
L 145.256727 114.982353 
L 145.581382 113.608307 
L 145.906036 107.726215 
L 146.230691 109.72329 
L 146.555345 115.070106 
L 146.88 116.016361 
L 147.204655 108.441473 
L 147.529309 109.872379 
L 147.853964 109.185461 
L 148.178618 116.983254 
L 148.503273 120.8969 
L 148.827927 128.213955 
L 149.477236 113.401371 
L 150.126545 124.660029 
L 150.4512 124.882114 
L 150.775855 118.927834 
L 151.100509 126.227596 
L 151.425164 120.182164 
L 152.399127 130.682401 
L 152.723782 131.763626 
L 153.048436 133.809752 
L 153.373091 131.821681 
L 154.0224 139.50698 
L 154.347055 147.990541 
L 155.321018 137.892898 
L 155.645673 131.048563 
L 155.970327 137.09107 
L 156.294982 134.002442 
L 156.619636 141.452447 
L 157.268945 125.820229 
L 157.5936 134.200528 
L 157.918255 127.10541 
L 158.567564 119.046206 
L 158.892218 113.443631 
L 159.216873 119.413181 
L 159.541527 117.611281 
L 160.190836 128.283668 
L 160.515491 121.086775 
L 160.840145 129.522072 
L 161.1648 131.154644 
L 161.489455 131.233343 
L 161.814109 123.627351 
L 162.138764 131.354584 
L 162.463418 128.909034 
L 162.788073 123.104128 
L 163.112727 126.129837 
L 163.437382 120.020077 
L 164.086691 122.864492 
L 164.411345 126.928882 
L 164.736 135.637893 
L 165.060655 140.023484 
L 165.385309 135.856132 
L 165.709964 136.458578 
L 166.034618 145.310751 
L 166.359273 137.339315 
L 166.683927 133.76001 
L 167.008582 131.830674 
L 167.333236 126.851753 
L 167.657891 132.803875 
L 167.982545 132.761864 
L 168.3072 132.989915 
L 168.631855 129.501182 
L 169.281164 120.134973 
L 169.605818 124.794368 
L 170.579782 115.649618 
L 171.553745 131.297042 
L 171.8784 129.009416 
L 172.203055 132.044122 
L 172.527709 126.660166 
L 172.852364 127.996913 
L 173.177018 119.999796 
L 173.501673 124.461266 
L 173.826327 115.88804 
L 174.150982 113.280487 
L 174.475636 116.70885 
L 174.800291 117.78094 
L 175.124945 113.087477 
L 175.774255 127.353088 
L 176.098909 119.14591 
L 176.423564 114.932355 
L 176.748218 116.303599 
L 177.072873 122.469378 
L 177.397527 124.574165 
L 177.722182 121.158427 
L 178.046836 121.760784 
L 178.371491 124.403492 
L 179.0208 120.208778 
L 179.345455 126.420847 
L 179.670109 124.662908 
L 179.994764 124.124806 
L 180.319418 127.184563 
L 180.644073 135.416627 
L 180.968727 137.059754 
L 181.293382 140.551523 
L 181.618036 138.971809 
L 181.942691 139.421182 
L 182.267345 143.964951 
L 182.592 150.846148 
L 182.916655 151.355797 
L 183.241309 151.186773 
L 183.565964 144.472577 
L 183.890618 148.150128 
L 184.215273 147.203679 
L 184.539927 146.971339 
L 184.864582 155.056117 
L 185.189236 152.249857 
L 185.838545 139.477236 
L 186.1632 139.025922 
L 186.812509 134.278056 
L 187.786473 153.810456 
L 188.111127 157.066005 
L 188.435782 165.38163 
L 189.085091 158.352951 
L 189.409745 149.550893 
L 190.059055 138.048881 
L 190.383709 141.443123 
L 190.708364 133.074378 
L 191.033018 128.631596 
L 191.357673 128.615094 
L 191.682327 122.570337 
L 192.006982 127.473716 
L 192.656291 115.238382 
L 192.980945 122.392187 
L 193.3056 116.095418 
L 193.630255 119.75736 
L 193.954909 126.761805 
L 194.279564 125.315521 
L 194.604218 129.583913 
L 194.928873 137.550683 
L 195.253527 137.912201 
L 195.578182 142.651313 
L 195.902836 141.226911 
L 196.227491 134.541618 
L 196.552145 141.512821 
L 196.8768 134.953701 
L 197.201455 136.29393 
L 197.526109 134.746891 
L 197.850764 132.205675 
L 198.175418 139.570371 
L 198.500073 132.873795 
L 198.824727 139.388408 
L 199.149382 135.91502 
L 199.474036 129.937012 
L 200.448 154.831298 
L 200.772655 148.369088 
L 201.097309 146.43794 
L 201.421964 148.290501 
L 201.746618 147.223871 
L 202.071273 153.603845 
L 202.395927 147.905746 
L 202.720582 152.180958 
L 203.045236 150.690276 
L 203.369891 156.548761 
L 203.694545 148.716908 
L 204.0192 145.945415 
L 204.343855 141.428085 
L 204.668509 139.191392 
L 204.993164 143.359222 
L 205.317818 138.279651 
L 205.642473 137.974559 
L 206.291782 148.490638 
L 206.616436 139.824304 
L 206.941091 144.160407 
L 207.915055 165.032855 
L 208.564364 170.589602 
L 209.213673 155.603633 
L 209.538327 158.28026 
L 210.187636 146.666421 
L 210.512291 147.513834 
L 210.836945 139.574908 
L 211.1616 140.74748 
L 211.486255 134.959758 
L 211.810909 139.837954 
L 212.135564 141.796377 
L 212.460218 139.604627 
L 213.434182 117.474859 
L 213.758836 121.425984 
L 214.083491 120.167611 
L 214.408145 122.722729 
L 214.7328 122.013664 
L 215.057455 124.708688 
L 215.382109 126.324292 
L 216.031418 140.326044 
L 216.356073 135.299166 
L 216.680727 126.428505 
L 217.005382 125.431445 
L 217.330036 117.152423 
L 217.654691 122.764271 
L 217.979345 117.264312 
L 218.628655 121.664174 
L 218.953309 128.848995 
L 219.277964 122.629508 
L 219.602618 124.094086 
L 219.927273 116.880507 
L 220.251927 124.177357 
L 220.576582 116.524165 
L 220.901236 113.751524 
L 221.225891 117.683565 
L 221.550545 116.548743 
L 221.8752 111.070406 
L 222.199855 116.807295 
L 222.849164 103.172111 
L 223.173818 101.315781 
L 223.823127 89.468552 
L 224.147782 93.652604 
L 224.472436 95.061813 
L 224.797091 100.956927 
L 225.121745 109.576418 
L 225.4464 103.927742 
L 225.771055 108.435041 
L 226.095709 116.7691 
L 226.420364 114.730474 
L 226.745018 116.45715 
L 227.069673 108.811628 
L 227.394327 113.943916 
L 228.043636 130.104976 
L 228.368291 129.228494 
L 228.692945 134.461945 
L 229.0176 137.731767 
L 229.342255 136.955306 
L 229.666909 131.39555 
L 229.991564 137.786808 
L 230.316218 135.920924 
L 230.640873 143.394873 
L 230.965527 143.888127 
L 231.290182 145.612613 
L 231.614836 151.61039 
L 232.264145 147.478324 
L 232.5888 140.188599 
L 232.913455 143.934141 
L 233.238109 151.01451 
L 233.562764 146.073102 
L 233.887418 147.580961 
L 234.212073 155.082605 
L 234.536727 159.458327 
L 235.186036 160.615898 
L 235.510691 162.101372 
L 235.835345 154.889881 
L 236.16 160.909082 
L 236.484655 160.424906 
L 236.809309 164.05796 
L 237.133964 171.745476 
L 237.458618 174.596964 
L 237.783273 180.395275 
L 238.107927 183.587773 
L 238.757236 169.293269 
L 239.081891 164.34372 
L 239.406545 170.0704 
L 239.7312 165.082964 
L 240.055855 156.343269 
L 240.380509 161.838032 
L 240.705164 159.700336 
L 241.029818 151.615977 
L 241.354473 149.227117 
L 241.679127 143.523568 
L 242.003782 146.236387 
L 242.328436 144.838638 
L 242.977745 158.672583 
L 243.3024 152.768575 
L 243.627055 154.568144 
L 243.951709 159.857061 
L 244.276364 159.846377 
L 244.925673 170.139732 
L 246.224291 139.787585 
L 246.548945 135.653972 
L 246.8736 143.419441 
L 247.198255 143.311082 
L 247.522909 137.441872 
L 247.847564 129.26796 
L 248.172218 135.942415 
L 248.496873 137.719708 
L 248.821527 138.302769 
L 249.146182 141.386325 
L 249.470836 137.495771 
L 249.795491 141.221804 
L 250.120145 138.79855 
L 250.4448 132.360809 
L 250.769455 139.004503 
L 251.094109 135.536439 
L 251.418764 127.042877 
L 251.743418 133.859954 
L 252.392727 118.834303 
L 252.717382 118.155307 
L 253.042036 121.283231 
L 253.366691 123.175306 
L 253.691345 123.37137 
L 254.016 131.425116 
L 254.340655 122.688419 
L 254.665309 118.974856 
L 255.314618 122.831609 
L 255.639273 121.892386 
L 255.963927 118.158205 
L 256.288582 119.937716 
L 257.911855 147.229572 
L 258.236509 145.955095 
L 259.535127 164.970803 
L 259.859782 166.028964 
L 260.509091 157.918455 
L 260.833745 149.965172 
L 261.1584 148.334135 
L 261.483055 149.69669 
L 261.807709 145.162654 
L 262.132364 145.038573 
L 262.457018 152.571539 
L 262.781673 148.765306 
L 263.106327 154.022427 
L 263.430982 151.997836 
L 263.755636 144.337232 
L 264.404945 160.37677 
L 265.054255 177.42222 
L 265.378909 181.980272 
L 265.703564 178.17596 
L 266.028218 179.226567 
L 266.352873 179.77724 
L 267.002182 164.730999 
L 267.326836 164.128219 
L 267.651491 162.646591 
L 267.976145 165.026612 
L 268.3008 169.019233 
L 268.625455 160.987674 
L 268.950109 156.221148 
L 269.274764 154.528409 
L 270.573382 178.146884 
L 270.898036 169.387054 
L 271.547345 164.71057 
L 271.872 165.263483 
L 272.521309 150.538557 
L 272.845964 151.465183 
L 273.170618 148.370573 
L 273.495273 147.857675 
L 273.819927 155.960443 
L 274.144582 160.461522 
L 274.469236 159.338386 
L 274.793891 159.503091 
L 275.118545 155.409912 
L 275.767855 160.628293 
L 276.092509 155.683256 
L 276.417164 156.502188 
L 276.741818 164.796653 
L 277.066473 164.28137 
L 277.715782 160.12069 
L 278.689745 172.586094 
L 279.0144 180.930986 
L 279.339055 174.97791 
L 279.663709 183.710707 
L 280.313018 171.083957 
L 280.637673 172.671384 
L 280.962327 168.37066 
L 281.286982 174.705041 
L 281.611636 176.409161 
L 281.936291 183.894531 
L 282.260945 183.669242 
L 282.5856 191.792482 
L 282.910255 196.732802 
L 283.234909 194.865949 
L 283.559564 192.019038 
L 284.208873 196.199454 
L 284.533527 189.058138 
L 284.858182 190.86919 
L 285.182836 188.850345 
L 285.507491 189.967115 
L 285.832145 195.904953 
L 286.1568 197.125903 
L 286.806109 186.832691 
L 287.130764 183.758088 
L 287.455418 178.549509 
L 287.780073 182.963932 
L 288.104727 181.551448 
L 289.078691 168.447454 
L 289.403345 160.033219 
L 289.728 159.178266 
L 290.052655 162.171032 
L 290.377309 169.28656 
L 290.701964 165.261721 
L 291.026618 164.268413 
L 291.351273 172.5352 
L 291.675927 166.417432 
L 292.325236 171.613143 
L 292.974545 184.712236 
L 293.623855 194.171258 
L 294.273164 179.530731 
L 294.597818 182.676698 
L 294.922473 190.593716 
L 295.247127 189.165656 
L 295.571782 182.034664 
L 295.896436 179.350638 
L 296.221091 178.589063 
L 296.545745 176.286301 
L 296.8704 167.553236 
L 297.195055 167.168365 
L 297.519709 175.419376 
L 297.844364 173.987787 
L 298.169018 165.979175 
L 298.493673 163.463315 
L 298.818327 156.707909 
L 299.142982 157.753821 
L 299.467636 157.592808 
L 299.792291 150.545812 
L 300.116945 156.924976 
L 300.4416 155.116483 
L 301.415564 140.412351 
L 301.740218 148.880848 
L 302.064873 148.992754 
L 302.389527 148.809457 
L 302.714182 141.696416 
L 303.038836 142.322811 
L 303.688145 146.503815 
L 304.0128 146.086557 
L 304.337455 143.615696 
L 304.662109 138.277681 
L 304.986764 140.880595 
L 305.311418 148.531778 
L 305.636073 144.83358 
L 305.960727 144.234588 
L 306.285382 150.845773 
L 306.610036 153.490632 
L 306.934691 152.098127 
L 307.259345 157.141828 
L 307.584 164.782951 
L 307.908655 157.227304 
L 308.233309 161.527093 
L 308.557964 161.41558 
L 308.882618 157.286396 
L 309.207273 157.264889 
L 309.531927 153.239109 
L 309.856582 145.158189 
L 310.181236 143.714342 
L 310.505891 139.588049 
L 311.1552 125.819591 
L 311.804509 135.470099 
L 312.129164 127.968151 
L 312.453818 132.068839 
L 312.778473 129.299927 
L 313.103127 129.346435 
L 313.427782 137.754234 
L 313.752436 133.47926 
L 314.077091 134.157569 
L 314.401745 126.010578 
L 314.7264 131.708032 
L 315.051055 140.430867 
L 315.375709 138.446622 
L 315.700364 145.646868 
L 316.025018 137.726188 
L 316.349673 137.999038 
L 316.998982 124.911494 
L 317.323636 122.319445 
L 317.648291 125.534781 
L 318.2976 140.211071 
L 318.622255 143.564003 
L 318.946909 134.794046 
L 319.271564 139.989877 
L 319.596218 139.90068 
L 319.920873 147.79935 
L 320.245527 151.957029 
L 320.570182 147.612231 
L 321.219491 133.801527 
L 321.544145 133.524645 
L 321.8688 136.444058 
L 322.518109 145.056637 
L 322.842764 146.511073 
L 323.167418 145.369613 
L 323.492073 152.908452 
L 323.816727 154.363243 
L 324.141382 160.904254 
L 324.466036 160.446798 
L 324.790691 168.027359 
L 325.115345 161.54802 
L 325.44 164.743178 
L 325.764655 159.97618 
L 326.089309 160.402552 
L 326.413964 166.331336 
L 326.738618 166.388343 
L 327.063273 174.083785 
L 327.387927 175.144533 
L 328.037236 185.764877 
L 328.361891 186.086769 
L 328.686545 186.974076 
L 329.0112 189.86475 
L 329.335855 195.516549 
L 329.660509 192.166579 
L 329.985164 195.467813 
L 330.309818 193.242446 
L 330.634473 189.848941 
L 330.959127 194.756261 
L 331.283782 188.462995 
L 331.608436 191.070474 
L 332.257745 175.670238 
L 332.5824 173.83745 
L 332.907055 168.263173 
L 333.231709 167.553737 
L 333.556364 169.447691 
L 333.881018 175.748238 
L 334.205673 172.490471 
L 334.854982 179.80649 
L 335.179636 174.409413 
L 335.504291 172.1079 
L 335.828945 176.466353 
L 336.1536 183.207485 
L 336.478255 183.953222 
L 336.802909 181.011602 
L 337.127564 183.300933 
L 337.776873 197.740673 
L 338.101527 190.994023 
L 338.750836 187.409325 
L 339.400145 178.016901 
L 339.7248 181.42234 
L 340.049455 182.564611 
L 340.374109 182.461063 
L 340.698764 183.938788 
L 341.023418 191.261631 
L 341.348073 187.229364 
L 341.672727 186.212767 
L 341.997382 194.779876 
L 342.322036 189.092695 
L 342.646691 190.475955 
L 343.296 205.53716 
L 343.620655 201.063751 
L 343.945309 208.475899 
L 344.269964 208.876125 
L 344.594618 200.800485 
L 344.919273 207.977235 
L 345.243927 204.403393 
L 345.568582 202.179701 
L 345.893236 196.966852 
L 346.542545 206.437424 
L 346.8672 210.78193 
L 347.191855 206.113503 
L 347.516509 211.578667 
L 348.165818 228.253246 
L 348.490473 232.6157 
L 348.815127 229.3083 
L 349.139782 234.836485 
L 349.464436 236.501367 
L 349.789091 232.083027 
L 350.113745 240.484722 
L 350.4384 240.555887 
L 350.763055 246.424511 
L 351.087709 246.75186 
L 351.412364 248.11297 
L 351.737018 253.853421 
L 352.061673 257.023049 
L 352.710982 252.481934 
L 353.035636 254.654018 
L 353.360291 259.345683 
L 353.684945 255.738916 
L 354.0096 248.122091 
L 354.334255 255.990247 
L 354.658909 249.304805 
L 354.983564 253.858251 
L 355.308218 261.284903 
L 355.632873 266.016429 
L 355.957527 274.26399 
L 356.282182 267.067735 
L 356.931491 264.864572 
L 357.256145 258.613501 
L 357.5808 259.570412 
L 357.905455 259.988987 
L 358.230109 257.574825 
L 358.554764 252.70213 
L 358.879418 260.900171 
L 359.204073 253.724387 
L 359.528727 255.984452 
L 359.853382 261.831576 
L 360.178036 253.566916 
L 360.827345 263.004627 
L 361.152 255.342262 
L 361.476655 260.212248 
L 361.801309 253.155731 
L 362.125964 251.871416 
L 362.450618 247.564833 
L 362.775273 251.873394 
L 363.099927 252.357888 
L 363.749236 266.016364 
L 364.073891 259.863049 
L 364.398545 259.803235 
L 365.047855 268.12542 
L 365.372509 269.815354 
L 365.697164 274.517263 
L 366.021818 273.979554 
L 366.671127 265.342194 
L 366.995782 273.961251 
L 367.320436 273.924955 
L 367.645091 271.729506 
L 368.2944 287.250666 
L 368.943709 271.103334 
L 369.593018 264.037897 
L 369.917673 267.632043 
L 370.242327 260.745217 
L 370.566982 268.653288 
L 370.891636 271.278515 
L 371.216291 266.046825 
L 371.8656 280.816527 
L 372.514909 290.096755 
L 372.839564 286.915269 
L 373.164218 289.122319 
L 373.488873 282.605186 
L 373.813527 279.62155 
L 374.138182 281.822615 
L 374.462836 281.416204 
L 374.787491 286.901803 
L 375.112145 285.641263 
L 375.4368 283.814647 
L 376.086109 295.488 
L 376.410764 291.943958 
L 376.735418 284.453757 
L 377.060073 280.023603 
L 377.384727 277.771146 
L 377.709382 271.670582 
L 378.683345 290.339495 
L 379.008 294.39033 
L 379.332655 286.172636 
L 379.657309 289.062798 
L 379.981964 284.592842 
L 380.306618 276.151051 
L 380.631273 279.141358 
L 380.955927 270.776872 
L 381.280582 278.160886 
L 381.929891 263.812392 
L 382.254545 268.197913 
L 382.903855 260.367893 
L 383.228509 258.757355 
L 383.553164 255.437073 
L 383.877818 246.656837 
L 384.202473 243.048691 
L 384.527127 247.9197 
L 384.851782 248.322708 
L 385.176436 250.467964 
L 385.501091 245.636585 
L 386.1504 255.315185 
L 386.475055 247.248159 
L 387.124364 249.72507 
L 387.449018 244.294144 
L 387.773673 253.080881 
L 388.098327 255.262967 
L 388.422982 254.891064 
L 388.747636 253.0594 
L 389.072291 256.387013 
L 389.396945 263.239338 
L 389.7216 258.16759 
L 390.046255 265.059622 
L 390.370909 265.495144 
L 390.695564 257.750389 
L 391.020218 253.036791 
L 391.344873 260.074205 
L 391.669527 252.781851 
L 391.994182 249.319617 
L 392.968145 260.311773 
L 393.2928 268.063456 
L 393.617455 262.303326 
L 394.266764 268.764945 
L 394.591418 267.631467 
L 394.916073 262.227554 
L 395.240727 264.430072 
L 395.565382 257.728861 
L 395.890036 261.232656 
L 396.214691 254.420249 
L 396.539345 257.411255 
L 396.864 264.24492 
L 397.188655 263.219109 
L 397.513309 267.890227 
L 397.837964 276.170997 
L 398.162618 274.350821 
L 398.487273 277.12174 
L 398.487273 277.12174 
" style="fill:none;stroke:#1f77b4;stroke-linecap:square;stroke-width:1.5;"/>
   </g>
   <g id="patch_3">
    <path d="M 57.6 307.584 
L 57.6 41.472 
" style="fill:none;stroke:#000000;stroke-linecap:square;stroke-linejoin:miter;stroke-width:0.8;"/>
   </g>
   <g id="patch_4">
    <path d="M 414.72 307.584 
L 414.72 41.472 
" style="fill:none;stroke:#000000;stroke-linecap:square;stroke-linejoin:miter;stroke-width:0.8;"/>
   </g>
   <g id="patch_5">
    <path d="M 57.6 307.584 
L 414.72 307.584 
" style="fill:none;stroke:#000000;stroke-linecap:square;stroke-linejoin:miter;stroke-width:0.8;"/>
   </g>
   <g id="patch_6">
    <path d="M 57.6 41.472 
L 414.72 41.472 
" style="fill:none;stroke:#000000;stroke-linecap:square;stroke-linejoin:miter;stroke-width:0.8;"/>
   </g>
   <g id="text_15">
    <!-- Brown noise, with max step size of 0.01 -->
    <g transform="translate(116.562188 35.472)scale(0.12 -0.12)">
     <defs>
      <path d="M 19.671875 34.8125 
L 19.671875 8.109375 
L 35.5 8.109375 
Q 43.453125 8.109375 47.28125 11.40625 
Q 51.125 14.703125 51.125 21.484375 
Q 51.125 28.328125 47.28125 31.5625 
Q 43.453125 34.8125 35.5 34.8125 
z
M 19.671875 64.796875 
L 19.671875 42.828125 
L 34.28125 42.828125 
Q 41.5 42.828125 45.03125 45.53125 
Q 48.578125 48.25 48.578125 53.8125 
Q 48.578125 59.328125 45.03125 62.0625 
Q 41.5 64.796875 34.28125 64.796875 
z
M 9.8125 72.90625 
L 35.015625 72.90625 
Q 46.296875 72.90625 52.390625 68.21875 
Q 58.5 63.53125 58.5 54.890625 
Q 58.5 48.1875 55.375 44.234375 
Q 52.25 40.28125 46.1875 39.3125 
Q 53.46875 37.75 57.5 32.78125 
Q 61.53125 27.828125 61.53125 20.40625 
Q 61.53125 10.640625 54.890625 5.3125 
Q 48.25 0 35.984375 0 
L 9.8125 0 
z
" id="DejaVuSans-66"/>
      <path d="M 41.109375 46.296875 
Q 39.59375 47.171875 37.8125 47.578125 
Q 36.03125 48 33.890625 48 
Q 26.265625 48 22.1875 43.046875 
Q 18.109375 38.09375 18.109375 28.8125 
L 18.109375 0 
L 9.078125 0 
L 9.078125 54.6875 
L 18.109375 54.6875 
L 18.109375 46.1875 
Q 20.953125 51.171875 25.484375 53.578125 
Q 30.03125 56 36.53125 56 
Q 37.453125 56 38.578125 55.875 
Q 39.703125 55.765625 41.0625 55.515625 
z
" id="DejaVuSans-114"/>
      <path d="M 4.203125 54.6875 
L 13.1875 54.6875 
L 24.421875 12.015625 
L 35.59375 54.6875 
L 46.1875 54.6875 
L 57.421875 12.015625 
L 68.609375 54.6875 
L 77.59375 54.6875 
L 63.28125 0 
L 52.6875 0 
L 40.921875 44.828125 
L 29.109375 0 
L 18.5 0 
z
" id="DejaVuSans-119"/>
      <path id="DejaVuSans-32"/>
      <path d="M 11.71875 12.40625 
L 22.015625 12.40625 
L 22.015625 4 
L 14.015625 -11.625 
L 7.71875 -11.625 
L 11.71875 4 
z
" id="DejaVuSans-44"/>
      <path d="M 54.890625 33.015625 
L 54.890625 0 
L 45.90625 0 
L 45.90625 32.71875 
Q 45.90625 40.484375 42.875 44.328125 
Q 39.84375 48.1875 33.796875 48.1875 
Q 26.515625 48.1875 22.3125 43.546875 
Q 18.109375 38.921875 18.109375 30.90625 
L 18.109375 0 
L 9.078125 0 
L 9.078125 75.984375 
L 18.109375 75.984375 
L 18.109375 46.1875 
Q 21.34375 51.125 25.703125 53.5625 
Q 30.078125 56 35.796875 56 
Q 45.21875 56 50.046875 50.171875 
Q 54.890625 44.34375 54.890625 33.015625 
z
" id="DejaVuSans-104"/>
      <path d="M 34.28125 27.484375 
Q 23.390625 27.484375 19.1875 25 
Q 14.984375 22.515625 14.984375 16.5 
Q 14.984375 11.71875 18.140625 8.90625 
Q 21.296875 6.109375 26.703125 6.109375 
Q 34.1875 6.109375 38.703125 11.40625 
Q 43.21875 16.703125 43.21875 25.484375 
L 43.21875 27.484375 
z
M 52.203125 31.203125 
L 52.203125 0 
L 43.21875 0 
L 43.21875 8.296875 
Q 40.140625 3.328125 35.546875 0.953125 
Q 30.953125 -1.421875 24.3125 -1.421875 
Q 15.921875 -1.421875 10.953125 3.296875 
Q 6 8.015625 6 15.921875 
Q 6 25.140625 12.171875 29.828125 
Q 18.359375 34.515625 30.609375 34.515625 
L 43.21875 34.515625 
L 43.21875 35.40625 
Q 43.21875 41.609375 39.140625 45 
Q 35.0625 48.390625 27.6875 48.390625 
Q 23 48.390625 18.546875 47.265625 
Q 14.109375 46.140625 10.015625 43.890625 
L 10.015625 52.203125 
Q 14.9375 54.109375 19.578125 55.046875 
Q 24.21875 56 28.609375 56 
Q 40.484375 56 46.34375 49.84375 
Q 52.203125 43.703125 52.203125 31.203125 
z
" id="DejaVuSans-97"/>
      <path d="M 54.890625 54.6875 
L 35.109375 28.078125 
L 55.90625 0 
L 45.3125 0 
L 29.390625 21.484375 
L 13.484375 0 
L 2.875 0 
L 24.125 28.609375 
L 4.6875 54.6875 
L 15.28125 54.6875 
L 29.78125 35.203125 
L 44.28125 54.6875 
z
" id="DejaVuSans-120"/>
      <path d="M 18.109375 8.203125 
L 18.109375 -20.796875 
L 9.078125 -20.796875 
L 9.078125 54.6875 
L 18.109375 54.6875 
L 18.109375 46.390625 
Q 20.953125 51.265625 25.265625 53.625 
Q 29.59375 56 35.59375 56 
Q 45.5625 56 51.78125 48.09375 
Q 58.015625 40.1875 58.015625 27.296875 
Q 58.015625 14.40625 51.78125 6.484375 
Q 45.5625 -1.421875 35.59375 -1.421875 
Q 29.59375 -1.421875 25.265625 0.953125 
Q 20.953125 3.328125 18.109375 8.203125 
z
M 48.6875 27.296875 
Q 48.6875 37.203125 44.609375 42.84375 
Q 40.53125 48.484375 33.40625 48.484375 
Q 26.265625 48.484375 22.1875 42.84375 
Q 18.109375 37.203125 18.109375 27.296875 
Q 18.109375 17.390625 22.1875 11.75 
Q 26.265625 6.109375 33.40625 6.109375 
Q 40.53125 6.109375 44.609375 11.75 
Q 48.6875 17.390625 48.6875 27.296875 
z
" id="DejaVuSans-112"/>
      <path d="M 5.515625 54.6875 
L 48.1875 54.6875 
L 48.1875 46.484375 
L 14.40625 7.171875 
L 48.1875 7.171875 
L 48.1875 0 
L 4.296875 0 
L 4.296875 8.203125 
L 38.09375 47.515625 
L 5.515625 47.515625 
z
" id="DejaVuSans-122"/>
      <path d="M 37.109375 75.984375 
L 37.109375 68.5 
L 28.515625 68.5 
Q 23.6875 68.5 21.796875 66.546875 
Q 19.921875 64.59375 19.921875 59.515625 
L 19.921875 54.6875 
L 34.71875 54.6875 
L 34.71875 47.703125 
L 19.921875 47.703125 
L 19.921875 0 
L 10.890625 0 
L 10.890625 47.703125 
L 2.296875 47.703125 
L 2.296875 54.6875 
L 10.890625 54.6875 
L 10.890625 58.5 
Q 10.890625 67.625 15.140625 71.796875 
Q 19.390625 75.984375 28.609375 75.984375 
z
" id="DejaVuSans-102"/>
     </defs>
     <use xlink:href="#DejaVuSans-66"/>
     <use x="68.603516" xlink:href="#DejaVuSans-114"/>
     <use x="107.466797" xlink:href="#DejaVuSans-111"/>
     <use x="168.648438" xlink:href="#DejaVuSans-119"/>
     <use x="250.435547" xlink:href="#DejaVuSans-110"/>
     <use x="313.814453" xlink:href="#DejaVuSans-32"/>
     <use x="345.601562" xlink:href="#DejaVuSans-110"/>
     <use x="408.980469" xlink:href="#DejaVuSans-111"/>
     <use x="470.162109" xlink:href="#DejaVuSans-105"/>
     <use x="497.945312" xlink:href="#DejaVuSans-115"/>
     <use x="550.044922" xlink:href="#DejaVuSans-101"/>
     <use x="611.568359" xlink:href="#DejaVuSans-44"/>
     <use x="643.355469" xlink:href="#DejaVuSans-32"/>
     <use x="675.142578" xlink:href="#DejaVuSans-119"/>
     <use x="756.929688" xlink:href="#DejaVuSans-105"/>
     <use x="784.712891" xlink:href="#DejaVuSans-116"/>
     <use x="823.921875" xlink:href="#DejaVuSans-104"/>
     <use x="887.300781" xlink:href="#DejaVuSans-32"/>
     <use x="919.087891" xlink:href="#DejaVuSans-109"/>
     <use x="1016.5" xlink:href="#DejaVuSans-97"/>
     <use x="1077.779297" xlink:href="#DejaVuSans-120"/>
     <use x="1136.958984" xlink:href="#DejaVuSans-32"/>
     <use x="1168.746094" xlink:href="#DejaVuSans-115"/>
     <use x="1220.845703" xlink:href="#DejaVuSans-116"/>
     <use x="1260.054688" xlink:href="#DejaVuSans-101"/>
     <use x="1321.578125" xlink:href="#DejaVuSans-112"/>
     <use x="1385.054688" xlink:href="#DejaVuSans-32"/>
     <use x="1416.841797" xlink:href="#DejaVuSans-115"/>
     <use x="1468.941406" xlink:href="#DejaVuSans-105"/>
     <use x="1496.724609" xlink:href="#DejaVuSans-122"/>
     <use x="1549.214844" xlink:href="#DejaVuSans-101"/>
     <use x="1610.738281" xlink:href="#DejaVuSans-32"/>
     <use x="1642.525391" xlink:href="#DejaVuSans-111"/>
     <use x="1703.707031" xlink:href="#DejaVuSans-102"/>
     <use x="1738.912109" xlink:href="#DejaVuSans-32"/>
     <use x="1770.699219" xlink:href="#DejaVuSans-48"/>
     <use x="1834.322266" xlink:href="#DejaVuSans-46"/>
     <use x="1866.109375" xlink:href="#DejaVuSans-48"/>
     <use x="1929.732422" xlink:href="#DejaVuSans-49"/>
    </g>
   </g>
  </g>
 </g>
 <defs>
  <clipPath id="p6ce82f46b4">
   <rect height="266.112" width="357.12" x="57.6" y="41.472"/>
  </clipPath>
 </defs>
</svg>
