<?xml version="1.0" encoding="utf-8" standalone="no"?>
<!DOCTYPE svg PUBLIC "-//W3C//DTD SVG 1.1//EN"
  "http://www.w3.org/Graphics/SVG/1.1/DTD/svg11.dtd">
<!-- Created with matplotlib (https://matplotlib.org/) -->
<svg height="345.6pt" version="1.1" viewBox="0 0 460.8 345.6" width="460.8pt" xmlns="http://www.w3.org/2000/svg" xmlns:xlink="http://www.w3.org/1999/xlink">
 <metadata>
  <rdf:RDF xmlns:cc="http://creativecommons.org/ns#" xmlns:dc="http://purl.org/dc/elements/1.1/" xmlns:rdf="http://www.w3.org/1999/02/22-rdf-syntax-ns#">
   <cc:Work>
    <dc:type rdf:resource="http://purl.org/dc/dcmitype/StillImage"/>
    <dc:date>2021-04-25T13:53:11.350163</dc:date>
    <dc:format>image/svg+xml</dc:format>
    <dc:creator>
     <cc:Agent>
      <dc:title>Matplotlib v3.3.4, https://matplotlib.org/</dc:title>
     </cc:Agent>
    </dc:creator>
   </cc:Work>
  </rdf:RDF>
 </metadata>
 <defs>
  <style type="text/css">*{stroke-linecap:butt;stroke-linejoin:round;}</style>
 </defs>
 <g id="figure_1">
  <g id="patch_1">
   <path d="M 0 345.6 
L 460.8 345.6 
L 460.8 0 
L 0 0 
z
" style="fill:#ffffff;"/>
  </g>
  <g id="axes_1">
   <g id="patch_2">
    <path d="M 57.6 307.584 
L 414.72 307.584 
L 414.72 41.472 
L 57.6 41.472 
z
" style="fill:#ffffff;"/>
   </g>
   <g id="matplotlib.axis_1">
    <g id="xtick_1">
     <g id="line2d_1">
      <defs>
       <path d="M 0 0 
L 0 3.5 
" id="m913a9532aa" style="stroke:#000000;stroke-width:0.8;"/>
      </defs>
      <g>
       <use style="stroke:#000000;stroke-width:0.8;" x="73.832727" xlink:href="#m913a9532aa" y="307.584"/>
      </g>
     </g>
     <g id="text_1">
      <!-- 0 -->
      <g transform="translate(70.651477 322.182437)scale(0.1 -0.1)">
       <defs>
        <path d="M 31.78125 66.40625 
Q 24.171875 66.40625 20.328125 58.90625 
Q 16.5 51.421875 16.5 36.375 
Q 16.5 21.390625 20.328125 13.890625 
Q 24.171875 6.390625 31.78125 6.390625 
Q 39.453125 6.390625 43.28125 13.890625 
Q 47.125 21.390625 47.125 36.375 
Q 47.125 51.421875 43.28125 58.90625 
Q 39.453125 66.40625 31.78125 66.40625 
z
M 31.78125 74.21875 
Q 44.046875 74.21875 50.515625 64.515625 
Q 56.984375 54.828125 56.984375 36.375 
Q 56.984375 17.96875 50.515625 8.265625 
Q 44.046875 -1.421875 31.78125 -1.421875 
Q 19.53125 -1.421875 13.0625 8.265625 
Q 6.59375 17.96875 6.59375 36.375 
Q 6.59375 54.828125 13.0625 64.515625 
Q 19.53125 74.21875 31.78125 74.21875 
z
" id="DejaVuSans-48"/>
       </defs>
       <use xlink:href="#DejaVuSans-48"/>
      </g>
     </g>
    </g>
    <g id="xtick_2">
     <g id="line2d_2">
      <g>
       <use style="stroke:#000000;stroke-width:0.8;" x="138.763636" xlink:href="#m913a9532aa" y="307.584"/>
      </g>
     </g>
     <g id="text_2">
      <!-- 20 -->
      <g transform="translate(132.401136 322.182437)scale(0.1 -0.1)">
       <defs>
        <path d="M 19.1875 8.296875 
L 53.609375 8.296875 
L 53.609375 0 
L 7.328125 0 
L 7.328125 8.296875 
Q 12.9375 14.109375 22.625 23.890625 
Q 32.328125 33.6875 34.8125 36.53125 
Q 39.546875 41.84375 41.421875 45.53125 
Q 43.3125 49.21875 43.3125 52.78125 
Q 43.3125 58.59375 39.234375 62.25 
Q 35.15625 65.921875 28.609375 65.921875 
Q 23.96875 65.921875 18.8125 64.3125 
Q 13.671875 62.703125 7.8125 59.421875 
L 7.8125 69.390625 
Q 13.765625 71.78125 18.9375 73 
Q 24.125 74.21875 28.421875 74.21875 
Q 39.75 74.21875 46.484375 68.546875 
Q 53.21875 62.890625 53.21875 53.421875 
Q 53.21875 48.921875 51.53125 44.890625 
Q 49.859375 40.875 45.40625 35.40625 
Q 44.1875 33.984375 37.640625 27.21875 
Q 31.109375 20.453125 19.1875 8.296875 
z
" id="DejaVuSans-50"/>
       </defs>
       <use xlink:href="#DejaVuSans-50"/>
       <use x="63.623047" xlink:href="#DejaVuSans-48"/>
      </g>
     </g>
    </g>
    <g id="xtick_3">
     <g id="line2d_3">
      <g>
       <use style="stroke:#000000;stroke-width:0.8;" x="203.694545" xlink:href="#m913a9532aa" y="307.584"/>
      </g>
     </g>
     <g id="text_3">
      <!-- 40 -->
      <g transform="translate(197.332045 322.182437)scale(0.1 -0.1)">
       <defs>
        <path d="M 37.796875 64.3125 
L 12.890625 25.390625 
L 37.796875 25.390625 
z
M 35.203125 72.90625 
L 47.609375 72.90625 
L 47.609375 25.390625 
L 58.015625 25.390625 
L 58.015625 17.1875 
L 47.609375 17.1875 
L 47.609375 0 
L 37.796875 0 
L 37.796875 17.1875 
L 4.890625 17.1875 
L 4.890625 26.703125 
z
" id="DejaVuSans-52"/>
       </defs>
       <use xlink:href="#DejaVuSans-52"/>
       <use x="63.623047" xlink:href="#DejaVuSans-48"/>
      </g>
     </g>
    </g>
    <g id="xtick_4">
     <g id="line2d_4">
      <g>
       <use style="stroke:#000000;stroke-width:0.8;" x="268.625455" xlink:href="#m913a9532aa" y="307.584"/>
      </g>
     </g>
     <g id="text_4">
      <!-- 60 -->
      <g transform="translate(262.262955 322.182437)scale(0.1 -0.1)">
       <defs>
        <path d="M 33.015625 40.375 
Q 26.375 40.375 22.484375 35.828125 
Q 18.609375 31.296875 18.609375 23.390625 
Q 18.609375 15.53125 22.484375 10.953125 
Q 26.375 6.390625 33.015625 6.390625 
Q 39.65625 6.390625 43.53125 10.953125 
Q 47.40625 15.53125 47.40625 23.390625 
Q 47.40625 31.296875 43.53125 35.828125 
Q 39.65625 40.375 33.015625 40.375 
z
M 52.59375 71.296875 
L 52.59375 62.3125 
Q 48.875 64.0625 45.09375 64.984375 
Q 41.3125 65.921875 37.59375 65.921875 
Q 27.828125 65.921875 22.671875 59.328125 
Q 17.53125 52.734375 16.796875 39.40625 
Q 19.671875 43.65625 24.015625 45.921875 
Q 28.375 48.1875 33.59375 48.1875 
Q 44.578125 48.1875 50.953125 41.515625 
Q 57.328125 34.859375 57.328125 23.390625 
Q 57.328125 12.15625 50.6875 5.359375 
Q 44.046875 -1.421875 33.015625 -1.421875 
Q 20.359375 -1.421875 13.671875 8.265625 
Q 6.984375 17.96875 6.984375 36.375 
Q 6.984375 53.65625 15.1875 63.9375 
Q 23.390625 74.21875 37.203125 74.21875 
Q 40.921875 74.21875 44.703125 73.484375 
Q 48.484375 72.75 52.59375 71.296875 
z
" id="DejaVuSans-54"/>
       </defs>
       <use xlink:href="#DejaVuSans-54"/>
       <use x="63.623047" xlink:href="#DejaVuSans-48"/>
      </g>
     </g>
    </g>
    <g id="xtick_5">
     <g id="line2d_5">
      <g>
       <use style="stroke:#000000;stroke-width:0.8;" x="333.556364" xlink:href="#m913a9532aa" y="307.584"/>
      </g>
     </g>
     <g id="text_5">
      <!-- 80 -->
      <g transform="translate(327.193864 322.182437)scale(0.1 -0.1)">
       <defs>
        <path d="M 31.78125 34.625 
Q 24.75 34.625 20.71875 30.859375 
Q 16.703125 27.09375 16.703125 20.515625 
Q 16.703125 13.921875 20.71875 10.15625 
Q 24.75 6.390625 31.78125 6.390625 
Q 38.8125 6.390625 42.859375 10.171875 
Q 46.921875 13.96875 46.921875 20.515625 
Q 46.921875 27.09375 42.890625 30.859375 
Q 38.875 34.625 31.78125 34.625 
z
M 21.921875 38.8125 
Q 15.578125 40.375 12.03125 44.71875 
Q 8.5 49.078125 8.5 55.328125 
Q 8.5 64.0625 14.71875 69.140625 
Q 20.953125 74.21875 31.78125 74.21875 
Q 42.671875 74.21875 48.875 69.140625 
Q 55.078125 64.0625 55.078125 55.328125 
Q 55.078125 49.078125 51.53125 44.71875 
Q 48 40.375 41.703125 38.8125 
Q 48.828125 37.15625 52.796875 32.3125 
Q 56.78125 27.484375 56.78125 20.515625 
Q 56.78125 9.90625 50.3125 4.234375 
Q 43.84375 -1.421875 31.78125 -1.421875 
Q 19.734375 -1.421875 13.25 4.234375 
Q 6.78125 9.90625 6.78125 20.515625 
Q 6.78125 27.484375 10.78125 32.3125 
Q 14.796875 37.15625 21.921875 38.8125 
z
M 18.3125 54.390625 
Q 18.3125 48.734375 21.84375 45.5625 
Q 25.390625 42.390625 31.78125 42.390625 
Q 38.140625 42.390625 41.71875 45.5625 
Q 45.3125 48.734375 45.3125 54.390625 
Q 45.3125 60.0625 41.71875 63.234375 
Q 38.140625 66.40625 31.78125 66.40625 
Q 25.390625 66.40625 21.84375 63.234375 
Q 18.3125 60.0625 18.3125 54.390625 
z
" id="DejaVuSans-56"/>
       </defs>
       <use xlink:href="#DejaVuSans-56"/>
       <use x="63.623047" xlink:href="#DejaVuSans-48"/>
      </g>
     </g>
    </g>
    <g id="xtick_6">
     <g id="line2d_6">
      <g>
       <use style="stroke:#000000;stroke-width:0.8;" x="398.487273" xlink:href="#m913a9532aa" y="307.584"/>
      </g>
     </g>
     <g id="text_6">
      <!-- 100 -->
      <g transform="translate(388.943523 322.182437)scale(0.1 -0.1)">
       <defs>
        <path d="M 12.40625 8.296875 
L 28.515625 8.296875 
L 28.515625 63.921875 
L 10.984375 60.40625 
L 10.984375 69.390625 
L 28.421875 72.90625 
L 38.28125 72.90625 
L 38.28125 8.296875 
L 54.390625 8.296875 
L 54.390625 0 
L 12.40625 0 
z
" id="DejaVuSans-49"/>
       </defs>
       <use xlink:href="#DejaVuSans-49"/>
       <use x="63.623047" xlink:href="#DejaVuSans-48"/>
       <use x="127.246094" xlink:href="#DejaVuSans-48"/>
      </g>
     </g>
    </g>
    <g id="text_7">
     <!-- time -->
     <g transform="translate(224.863906 335.860562)scale(0.1 -0.1)">
      <defs>
       <path d="M 18.3125 70.21875 
L 18.3125 54.6875 
L 36.8125 54.6875 
L 36.8125 47.703125 
L 18.3125 47.703125 
L 18.3125 18.015625 
Q 18.3125 11.328125 20.140625 9.421875 
Q 21.96875 7.515625 27.59375 7.515625 
L 36.8125 7.515625 
L 36.8125 0 
L 27.59375 0 
Q 17.1875 0 13.234375 3.875 
Q 9.28125 7.765625 9.28125 18.015625 
L 9.28125 47.703125 
L 2.6875 47.703125 
L 2.6875 54.6875 
L 9.28125 54.6875 
L 9.28125 70.21875 
z
" id="DejaVuSans-116"/>
       <path d="M 9.421875 54.6875 
L 18.40625 54.6875 
L 18.40625 0 
L 9.421875 0 
z
M 9.421875 75.984375 
L 18.40625 75.984375 
L 18.40625 64.59375 
L 9.421875 64.59375 
z
" id="DejaVuSans-105"/>
       <path d="M 52 44.1875 
Q 55.375 50.25 60.0625 53.125 
Q 64.75 56 71.09375 56 
Q 79.640625 56 84.28125 50.015625 
Q 88.921875 44.046875 88.921875 33.015625 
L 88.921875 0 
L 79.890625 0 
L 79.890625 32.71875 
Q 79.890625 40.578125 77.09375 44.375 
Q 74.3125 48.1875 68.609375 48.1875 
Q 61.625 48.1875 57.5625 43.546875 
Q 53.515625 38.921875 53.515625 30.90625 
L 53.515625 0 
L 44.484375 0 
L 44.484375 32.71875 
Q 44.484375 40.625 41.703125 44.40625 
Q 38.921875 48.1875 33.109375 48.1875 
Q 26.21875 48.1875 22.15625 43.53125 
Q 18.109375 38.875 18.109375 30.90625 
L 18.109375 0 
L 9.078125 0 
L 9.078125 54.6875 
L 18.109375 54.6875 
L 18.109375 46.1875 
Q 21.1875 51.21875 25.484375 53.609375 
Q 29.78125 56 35.6875 56 
Q 41.65625 56 45.828125 52.96875 
Q 50 49.953125 52 44.1875 
z
" id="DejaVuSans-109"/>
       <path d="M 56.203125 29.59375 
L 56.203125 25.203125 
L 14.890625 25.203125 
Q 15.484375 15.921875 20.484375 11.0625 
Q 25.484375 6.203125 34.421875 6.203125 
Q 39.59375 6.203125 44.453125 7.46875 
Q 49.3125 8.734375 54.109375 11.28125 
L 54.109375 2.78125 
Q 49.265625 0.734375 44.1875 -0.34375 
Q 39.109375 -1.421875 33.890625 -1.421875 
Q 20.796875 -1.421875 13.15625 6.1875 
Q 5.515625 13.8125 5.515625 26.8125 
Q 5.515625 40.234375 12.765625 48.109375 
Q 20.015625 56 32.328125 56 
Q 43.359375 56 49.78125 48.890625 
Q 56.203125 41.796875 56.203125 29.59375 
z
M 47.21875 32.234375 
Q 47.125 39.59375 43.09375 43.984375 
Q 39.0625 48.390625 32.421875 48.390625 
Q 24.90625 48.390625 20.390625 44.140625 
Q 15.875 39.890625 15.1875 32.171875 
z
" id="DejaVuSans-101"/>
      </defs>
      <use xlink:href="#DejaVuSans-116"/>
      <use x="39.208984" xlink:href="#DejaVuSans-105"/>
      <use x="66.992188" xlink:href="#DejaVuSans-109"/>
      <use x="164.404297" xlink:href="#DejaVuSans-101"/>
     </g>
    </g>
   </g>
   <g id="matplotlib.axis_2">
    <g id="ytick_1">
     <g id="line2d_7">
      <defs>
       <path d="M 0 0 
L -3.5 0 
" id="m2a711a487b" style="stroke:#000000;stroke-width:0.8;"/>
      </defs>
      <g>
       <use style="stroke:#000000;stroke-width:0.8;" x="57.6" xlink:href="#m2a711a487b" y="307.442368"/>
      </g>
     </g>
     <g id="text_8">
      <!-- −5 -->
      <g transform="translate(35.857813 311.241586)scale(0.1 -0.1)">
       <defs>
        <path d="M 10.59375 35.5 
L 73.1875 35.5 
L 73.1875 27.203125 
L 10.59375 27.203125 
z
" id="DejaVuSans-8722"/>
        <path d="M 10.796875 72.90625 
L 49.515625 72.90625 
L 49.515625 64.59375 
L 19.828125 64.59375 
L 19.828125 46.734375 
Q 21.96875 47.46875 24.109375 47.828125 
Q 26.265625 48.1875 28.421875 48.1875 
Q 40.625 48.1875 47.75 41.5 
Q 54.890625 34.8125 54.890625 23.390625 
Q 54.890625 11.625 47.5625 5.09375 
Q 40.234375 -1.421875 26.90625 -1.421875 
Q 22.3125 -1.421875 17.546875 -0.640625 
Q 12.796875 0.140625 7.71875 1.703125 
L 7.71875 11.625 
Q 12.109375 9.234375 16.796875 8.0625 
Q 21.484375 6.890625 26.703125 6.890625 
Q 35.15625 6.890625 40.078125 11.328125 
Q 45.015625 15.765625 45.015625 23.390625 
Q 45.015625 31 40.078125 35.4375 
Q 35.15625 39.890625 26.703125 39.890625 
Q 22.75 39.890625 18.8125 39.015625 
Q 14.890625 38.140625 10.796875 36.28125 
z
" id="DejaVuSans-53"/>
       </defs>
       <use xlink:href="#DejaVuSans-8722"/>
       <use x="83.789062" xlink:href="#DejaVuSans-53"/>
      </g>
     </g>
    </g>
    <g id="ytick_2">
     <g id="line2d_8">
      <g>
       <use style="stroke:#000000;stroke-width:0.8;" x="57.6" xlink:href="#m2a711a487b" y="272.775422"/>
      </g>
     </g>
     <g id="text_9">
      <!-- −4 -->
      <g transform="translate(35.857813 276.574641)scale(0.1 -0.1)">
       <use xlink:href="#DejaVuSans-8722"/>
       <use x="83.789062" xlink:href="#DejaVuSans-52"/>
      </g>
     </g>
    </g>
    <g id="ytick_3">
     <g id="line2d_9">
      <g>
       <use style="stroke:#000000;stroke-width:0.8;" x="57.6" xlink:href="#m2a711a487b" y="238.108476"/>
      </g>
     </g>
     <g id="text_10">
      <!-- −3 -->
      <g transform="translate(35.857813 241.907695)scale(0.1 -0.1)">
       <defs>
        <path d="M 40.578125 39.3125 
Q 47.65625 37.796875 51.625 33 
Q 55.609375 28.21875 55.609375 21.1875 
Q 55.609375 10.40625 48.1875 4.484375 
Q 40.765625 -1.421875 27.09375 -1.421875 
Q 22.515625 -1.421875 17.65625 -0.515625 
Q 12.796875 0.390625 7.625 2.203125 
L 7.625 11.71875 
Q 11.71875 9.328125 16.59375 8.109375 
Q 21.484375 6.890625 26.8125 6.890625 
Q 36.078125 6.890625 40.9375 10.546875 
Q 45.796875 14.203125 45.796875 21.1875 
Q 45.796875 27.640625 41.28125 31.265625 
Q 36.765625 34.90625 28.71875 34.90625 
L 20.21875 34.90625 
L 20.21875 43.015625 
L 29.109375 43.015625 
Q 36.375 43.015625 40.234375 45.921875 
Q 44.09375 48.828125 44.09375 54.296875 
Q 44.09375 59.90625 40.109375 62.90625 
Q 36.140625 65.921875 28.71875 65.921875 
Q 24.65625 65.921875 20.015625 65.03125 
Q 15.375 64.15625 9.8125 62.3125 
L 9.8125 71.09375 
Q 15.4375 72.65625 20.34375 73.4375 
Q 25.25 74.21875 29.59375 74.21875 
Q 40.828125 74.21875 47.359375 69.109375 
Q 53.90625 64.015625 53.90625 55.328125 
Q 53.90625 49.265625 50.4375 45.09375 
Q 46.96875 40.921875 40.578125 39.3125 
z
" id="DejaVuSans-51"/>
       </defs>
       <use xlink:href="#DejaVuSans-8722"/>
       <use x="83.789062" xlink:href="#DejaVuSans-51"/>
      </g>
     </g>
    </g>
    <g id="ytick_4">
     <g id="line2d_10">
      <g>
       <use style="stroke:#000000;stroke-width:0.8;" x="57.6" xlink:href="#m2a711a487b" y="203.44153"/>
      </g>
     </g>
     <g id="text_11">
      <!-- −2 -->
      <g transform="translate(35.857813 207.240749)scale(0.1 -0.1)">
       <use xlink:href="#DejaVuSans-8722"/>
       <use x="83.789062" xlink:href="#DejaVuSans-50"/>
      </g>
     </g>
    </g>
    <g id="ytick_5">
     <g id="line2d_11">
      <g>
       <use style="stroke:#000000;stroke-width:0.8;" x="57.6" xlink:href="#m2a711a487b" y="168.774584"/>
      </g>
     </g>
     <g id="text_12">
      <!-- −1 -->
      <g transform="translate(35.857813 172.573803)scale(0.1 -0.1)">
       <use xlink:href="#DejaVuSans-8722"/>
       <use x="83.789062" xlink:href="#DejaVuSans-49"/>
      </g>
     </g>
    </g>
    <g id="ytick_6">
     <g id="line2d_12">
      <g>
       <use style="stroke:#000000;stroke-width:0.8;" x="57.6" xlink:href="#m2a711a487b" y="134.107638"/>
      </g>
     </g>
     <g id="text_13">
      <!-- 0 -->
      <g transform="translate(44.2375 137.906857)scale(0.1 -0.1)">
       <use xlink:href="#DejaVuSans-48"/>
      </g>
     </g>
    </g>
    <g id="ytick_7">
     <g id="line2d_13">
      <g>
       <use style="stroke:#000000;stroke-width:0.8;" x="57.6" xlink:href="#m2a711a487b" y="99.440692"/>
      </g>
     </g>
     <g id="text_14">
      <!-- 1 -->
      <g transform="translate(44.2375 103.239911)scale(0.1 -0.1)">
       <use xlink:href="#DejaVuSans-49"/>
      </g>
     </g>
    </g>
    <g id="ytick_8">
     <g id="line2d_14">
      <g>
       <use style="stroke:#000000;stroke-width:0.8;" x="57.6" xlink:href="#m2a711a487b" y="64.773746"/>
      </g>
     </g>
     <g id="text_15">
      <!-- 2 -->
      <g transform="translate(44.2375 68.572965)scale(0.1 -0.1)">
       <use xlink:href="#DejaVuSans-50"/>
      </g>
     </g>
    </g>
    <g id="text_16">
     <!-- noise -->
     <g transform="translate(29.778125 187.826437)rotate(-90)scale(0.1 -0.1)">
      <defs>
       <path d="M 54.890625 33.015625 
L 54.890625 0 
L 45.90625 0 
L 45.90625 32.71875 
Q 45.90625 40.484375 42.875 44.328125 
Q 39.84375 48.1875 33.796875 48.1875 
Q 26.515625 48.1875 22.3125 43.546875 
Q 18.109375 38.921875 18.109375 30.90625 
L 18.109375 0 
L 9.078125 0 
L 9.078125 54.6875 
L 18.109375 54.6875 
L 18.109375 46.1875 
Q 21.34375 51.125 25.703125 53.5625 
Q 30.078125 56 35.796875 56 
Q 45.21875 56 50.046875 50.171875 
Q 54.890625 44.34375 54.890625 33.015625 
z
" id="DejaVuSans-110"/>
       <path d="M 30.609375 48.390625 
Q 23.390625 48.390625 19.1875 42.75 
Q 14.984375 37.109375 14.984375 27.296875 
Q 14.984375 17.484375 19.15625 11.84375 
Q 23.34375 6.203125 30.609375 6.203125 
Q 37.796875 6.203125 41.984375 11.859375 
Q 46.1875 17.53125 46.1875 27.296875 
Q 46.1875 37.015625 41.984375 42.703125 
Q 37.796875 48.390625 30.609375 48.390625 
z
M 30.609375 56 
Q 42.328125 56 49.015625 48.375 
Q 55.71875 40.765625 55.71875 27.296875 
Q 55.71875 13.875 49.015625 6.21875 
Q 42.328125 -1.421875 30.609375 -1.421875 
Q 18.84375 -1.421875 12.171875 6.21875 
Q 5.515625 13.875 5.515625 27.296875 
Q 5.515625 40.765625 12.171875 48.375 
Q 18.84375 56 30.609375 56 
z
" id="DejaVuSans-111"/>
       <path d="M 44.28125 53.078125 
L 44.28125 44.578125 
Q 40.484375 46.53125 36.375 47.5 
Q 32.28125 48.484375 27.875 48.484375 
Q 21.1875 48.484375 17.84375 46.4375 
Q 14.5 44.390625 14.5 40.28125 
Q 14.5 37.15625 16.890625 35.375 
Q 19.28125 33.59375 26.515625 31.984375 
L 29.59375 31.296875 
Q 39.15625 29.25 43.1875 25.515625 
Q 47.21875 21.78125 47.21875 15.09375 
Q 47.21875 7.46875 41.1875 3.015625 
Q 35.15625 -1.421875 24.609375 -1.421875 
Q 20.21875 -1.421875 15.453125 -0.5625 
Q 10.6875 0.296875 5.421875 2 
L 5.421875 11.28125 
Q 10.40625 8.6875 15.234375 7.390625 
Q 20.0625 6.109375 24.8125 6.109375 
Q 31.15625 6.109375 34.5625 8.28125 
Q 37.984375 10.453125 37.984375 14.40625 
Q 37.984375 18.0625 35.515625 20.015625 
Q 33.0625 21.96875 24.703125 23.78125 
L 21.578125 24.515625 
Q 13.234375 26.265625 9.515625 29.90625 
Q 5.8125 33.546875 5.8125 39.890625 
Q 5.8125 47.609375 11.28125 51.796875 
Q 16.75 56 26.8125 56 
Q 31.78125 56 36.171875 55.265625 
Q 40.578125 54.546875 44.28125 53.078125 
z
" id="DejaVuSans-115"/>
      </defs>
      <use xlink:href="#DejaVuSans-110"/>
      <use x="63.378906" xlink:href="#DejaVuSans-111"/>
      <use x="124.560547" xlink:href="#DejaVuSans-105"/>
      <use x="152.34375" xlink:href="#DejaVuSans-115"/>
      <use x="204.443359" xlink:href="#DejaVuSans-101"/>
     </g>
    </g>
   </g>
   <g id="line2d_15">
    <path clip-path="url(#pf494c51940)" d="M 73.832727 134.107638 
L 74.157382 152.91076 
L 74.482036 150.539155 
L 74.806691 164.650764 
L 75.131345 132.03106 
L 75.456 140.671242 
L 75.780655 134.762784 
L 76.105309 147.308192 
L 76.754618 163.830089 
L 77.079273 122.366304 
L 77.403927 113.736316 
L 77.728582 142.708913 
L 78.053236 140.520382 
L 78.377891 159.94648 
L 78.702545 159.568969 
L 79.0272 100.692486 
L 79.351855 145.944605 
L 79.676509 110.269733 
L 80.001164 119.790479 
L 80.325818 140.068727 
L 80.650473 149.8745 
L 80.975127 142.526879 
L 81.299782 138.356224 
L 81.624436 109.934544 
L 81.949091 147.023972 
L 82.273745 129.212185 
L 82.5984 134.660946 
L 82.923055 154.176635 
L 83.247709 97.234383 
L 83.572364 102.852558 
L 83.897018 150.248534 
L 84.221673 142.790855 
L 84.546327 101.259103 
L 84.870982 99.509944 
L 85.520291 153.900127 
L 85.844945 151.092961 
L 86.1696 154.388906 
L 86.494255 98.438787 
L 86.818909 98.320197 
L 87.143564 152.180146 
L 87.468218 140.052159 
L 87.792873 103.130794 
L 88.117527 154.49159 
L 88.442182 165.910964 
L 88.766836 143.42742 
L 89.091491 158.124771 
L 89.416145 129.545649 
L 89.7408 133.090613 
L 90.065455 108.557928 
L 90.390109 160.601075 
L 90.714764 94.615567 
L 91.364073 148.225484 
L 91.688727 135.660579 
L 92.013382 100.421484 
L 92.338036 143.57254 
L 92.662691 106.878104 
L 92.987345 134.264401 
L 93.312 141.328689 
L 93.636655 142.520399 
L 93.961309 134.093149 
L 94.285964 167.480604 
L 94.610618 117.189839 
L 94.935273 164.072898 
L 95.259927 154.777578 
L 95.584582 108.235221 
L 95.909236 121.336039 
L 96.233891 108.478865 
L 96.558545 170.984652 
L 96.8832 133.2735 
L 97.532509 168.690672 
L 98.831127 118.615338 
L 99.155782 162.124101 
L 99.805091 102.692568 
L 100.129745 102.479779 
L 100.4544 169.872468 
L 100.779055 116.967435 
L 101.103709 152.560845 
L 101.428364 132.763868 
L 101.753018 131.431083 
L 102.077673 267.28048 
L 102.402327 163.085433 
L 102.726982 101.01485 
L 103.051636 149.800711 
L 103.376291 127.634763 
L 103.700945 132.711523 
L 104.0256 117.162612 
L 104.350255 154.537387 
L 104.674909 152.426235 
L 104.999564 110.495199 
L 105.324218 130.998976 
L 105.648873 134.790201 
L 105.973527 127.162851 
L 106.298182 114.761467 
L 106.622836 96.530017 
L 106.947491 160.430344 
L 107.272145 157.749076 
L 107.5968 108.375118 
L 107.921455 109.33141 
L 108.246109 98.011264 
L 108.570764 122.142487 
L 108.895418 133.881951 
L 109.220073 94.306555 
L 109.544727 126.552075 
L 109.869382 126.122345 
L 110.194036 154.552813 
L 110.518691 112.246576 
L 110.843345 129.995852 
L 111.168 92.569233 
L 111.492655 120.2435 
L 111.817309 89.745103 
L 112.141964 139.420457 
L 112.466618 134.45866 
L 112.791273 79.836637 
L 113.115927 114.757035 
L 113.440582 133.237023 
L 113.765236 139.720728 
L 114.089891 95.419899 
L 114.414545 123.268065 
L 114.7392 82.784234 
L 115.063855 110.136432 
L 115.388509 106.701012 
L 115.713164 90.878564 
L 116.037818 99.939541 
L 116.362473 76.674271 
L 116.687127 92.76414 
L 117.011782 83.726874 
L 117.336436 127.941642 
L 117.661091 85.438553 
L 117.985745 108.290135 
L 118.3104 103.536296 
L 118.635055 73.662682 
L 118.959709 78.174872 
L 119.284364 60.895498 
L 119.609018 119.693652 
L 119.933673 126.510381 
L 120.258327 75.673076 
L 120.582982 66.005106 
L 120.907636 117.68865 
L 121.232291 107.528991 
L 121.556945 134.752874 
L 121.8816 129.997119 
L 122.206255 121.386708 
L 122.530909 107.985984 
L 122.855564 77.90504 
L 123.180218 112.897981 
L 123.504873 90.643428 
L 123.829527 95.12836 
L 124.154182 92.710544 
L 124.478836 79.685872 
L 124.803491 82.017918 
L 125.128145 74.615454 
L 125.4528 81.962392 
L 125.777455 117.003907 
L 126.102109 86.581078 
L 126.426764 102.702496 
L 126.751418 91.685086 
L 127.076073 115.974602 
L 127.400727 126.103577 
L 127.725382 107.138621 
L 128.050036 113.22435 
L 128.374691 71.522714 
L 128.699345 140.415579 
L 129.024 143.442522 
L 129.348655 110.772991 
L 129.673309 119.565519 
L 129.997964 111.482487 
L 130.647273 83.671531 
L 130.971927 87.149226 
L 131.296582 114.211677 
L 131.621236 80.731012 
L 132.270545 134.362729 
L 132.5952 87.709294 
L 132.919855 79.728266 
L 133.244509 127.317437 
L 133.569164 115.975754 
L 133.893818 131.838611 
L 134.218473 112.775709 
L 134.867782 141.583317 
L 135.192436 119.404579 
L 135.517091 145.492756 
L 135.841745 102.248762 
L 136.1664 100.383559 
L 136.491055 113.287922 
L 136.815709 130.826877 
L 137.140364 131.636948 
L 137.465018 122.696875 
L 137.789673 146.477531 
L 138.114327 100.140889 
L 138.438982 143.719315 
L 138.763636 137.91882 
L 139.088291 128.986843 
L 139.412945 151.049893 
L 139.7376 96.832536 
L 140.062255 118.256454 
L 140.386909 151.819931 
L 140.711564 118.527823 
L 141.036218 158.725456 
L 141.685527 107.588229 
L 142.010182 157.452594 
L 142.334836 106.286299 
L 142.659491 143.447943 
L 142.984145 133.259433 
L 143.3088 147.466325 
L 143.633455 147.299808 
L 143.958109 137.321003 
L 144.282764 107.245415 
L 144.607418 138.685446 
L 144.932073 107.009371 
L 145.256727 153.325961 
L 145.581382 103.210697 
L 145.906036 146.367006 
L 146.230691 150.093497 
L 146.555345 99.097253 
L 146.88 152.412784 
L 147.204655 156.750124 
L 147.529309 127.034767 
L 147.853964 129.341568 
L 148.178618 136.782819 
L 148.503273 157.286375 
L 148.827927 113.048156 
L 149.152582 143.011084 
L 149.477236 144.598985 
L 149.801891 121.857593 
L 150.126545 146.169802 
L 150.4512 121.184495 
L 150.775855 134.362718 
L 151.100509 107.314738 
L 151.425164 158.624752 
L 151.749818 120.453369 
L 152.074473 124.086979 
L 152.399127 131.401015 
L 152.723782 153.675629 
L 153.048436 139.017954 
L 153.697745 167.308356 
L 154.347055 131.444174 
L 154.671709 107.7697 
L 154.996364 133.85344 
L 155.321018 139.789045 
L 155.645673 142.905979 
L 155.970327 166.710441 
L 156.294982 149.41192 
L 156.619636 142.039882 
L 156.944291 173.064588 
L 157.268945 135.84829 
L 157.5936 161.875266 
L 157.918255 158.561159 
L 158.242909 113.317308 
L 158.567564 141.898561 
L 158.892218 106.150848 
L 159.216873 142.605438 
L 159.541527 141.940809 
L 159.866182 117.729363 
L 160.190836 119.148543 
L 160.515491 156.847399 
L 160.840145 140.474233 
L 161.1648 139.548737 
L 161.489455 157.732158 
L 161.814109 157.740537 
L 162.138764 129.626645 
L 162.463418 177.421745 
L 162.788073 124.586488 
L 163.112727 133.596682 
L 163.437382 123.267454 
L 163.762036 151.540723 
L 164.086691 153.789455 
L 164.411345 143.332767 
L 164.736 129.15429 
L 165.060655 122.689236 
L 165.385309 162.736338 
L 165.709964 158.353812 
L 166.034618 168.032742 
L 166.359273 133.928807 
L 166.683927 133.827785 
L 167.008582 159.810636 
L 167.333236 128.920838 
L 167.657891 115.901245 
L 167.982545 159.433133 
L 168.631855 114.975654 
L 168.956509 131.963264 
L 169.281164 114.552224 
L 169.605818 116.37643 
L 169.930473 144.78299 
L 170.255127 118.800158 
L 170.579782 110.595381 
L 171.229091 157.256923 
L 171.8784 125.122442 
L 172.203055 150.635849 
L 172.527709 167.046504 
L 172.852364 136.724665 
L 173.177018 146.358123 
L 173.826327 185.09603 
L 174.150982 141.701959 
L 174.475636 130.673754 
L 174.800291 170.384246 
L 175.124945 141.824969 
L 175.4496 163.396548 
L 175.774255 161.341316 
L 176.098909 137.615287 
L 176.423564 184.336107 
L 176.748218 252.314521 
L 177.072873 126.226299 
L 177.397527 179.467589 
L 177.722182 129.539904 
L 178.046836 134.184189 
L 178.371491 136.154421 
L 178.696145 131.167705 
L 179.0208 129.115217 
L 179.345455 112.750541 
L 179.670109 169.876548 
L 179.994764 57.603561 
L 180.644073 168.44194 
L 180.968727 118.024352 
L 181.618036 153.103293 
L 181.942691 150.537114 
L 182.267345 122.914279 
L 182.592 122.655385 
L 182.916655 177.150075 
L 183.241309 163.805584 
L 183.565964 172.11774 
L 183.890618 118.57324 
L 184.215273 127.967483 
L 184.539927 161.565782 
L 184.864582 136.014423 
L 185.189236 171.209789 
L 185.513891 181.947803 
L 185.838545 125.248133 
L 186.1632 118.29556 
L 186.487855 127.297763 
L 186.812509 127.530485 
L 187.137164 183.872155 
L 187.461818 138.934078 
L 187.786473 146.777485 
L 188.111127 147.134306 
L 188.435782 158.512362 
L 188.760436 176.237897 
L 189.085091 161.31087 
L 189.409745 119.144353 
L 189.7344 181.239573 
L 190.059055 125.721916 
L 190.383709 181.626688 
L 190.708364 158.839534 
L 191.033018 118.995885 
L 191.357673 146.855904 
L 191.682327 146.995236 
L 192.006982 146.013459 
L 192.331636 138.047629 
L 192.656291 181.565522 
L 192.980945 137.555661 
L 193.3056 178.32452 
L 193.630255 111.639715 
L 193.954909 162.513253 
L 194.279564 162.90503 
L 194.604218 134.464877 
L 194.928873 183.437227 
L 195.253527 129.642763 
L 195.578182 148.161269 
L 195.902836 153.204646 
L 196.227491 165.361809 
L 196.552145 153.533714 
L 196.8768 168.089679 
L 197.201455 136.524082 
L 197.526109 147.312874 
L 197.850764 138.951127 
L 198.175418 182.376487 
L 198.500073 182.53734 
L 198.824727 173.080209 
L 199.149382 189.351314 
L 199.474036 136.336945 
L 199.798691 160.562057 
L 200.123345 171.026943 
L 200.448 135.758144 
L 200.772655 165.569791 
L 201.097309 184.140234 
L 201.421964 170.970084 
L 201.746618 182.260328 
L 202.071273 149.545426 
L 202.720582 136.996349 
L 203.045236 137.081717 
L 203.369891 126.209953 
L 203.694545 130.640227 
L 204.0192 152.411469 
L 204.343855 127.472331 
L 204.993164 165.509977 
L 205.317818 134.839566 
L 205.642473 129.999155 
L 205.967127 140.727809 
L 206.291782 185.764313 
L 206.616436 121.752168 
L 206.941091 124.99643 
L 207.265745 133.253232 
L 207.5904 151.779781 
L 207.915055 136.423365 
L 208.239709 162.457387 
L 208.564364 151.99902 
L 208.889018 152.075714 
L 209.213673 132.16419 
L 209.538327 177.42542 
L 209.862982 192.514727 
L 210.187636 135.103143 
L 210.512291 181.482672 
L 210.836945 151.801821 
L 211.1616 157.297899 
L 211.486255 157.102429 
L 211.810909 171.666488 
L 212.135564 196.547244 
L 212.460218 194.490232 
L 213.109527 146.909551 
L 213.434182 187.671998 
L 213.758836 131.347432 
L 214.083491 146.744396 
L 214.408145 150.625766 
L 214.7328 194.823391 
L 215.057455 142.193293 
L 215.382109 180.236777 
L 215.706764 127.915779 
L 216.031418 168.205988 
L 216.356073 163.94941 
L 216.680727 177.710032 
L 217.005382 129.347661 
L 217.330036 143.542368 
L 217.654691 167.641311 
L 217.979345 154.5721 
L 218.304 180.843781 
L 218.628655 133.627332 
L 218.953309 162.799922 
L 219.277964 119.600292 
L 219.602618 138.307397 
L 219.927273 181.872888 
L 220.251927 130.893101 
L 220.576582 169.006127 
L 220.901236 147.477365 
L 221.225891 178.899967 
L 221.550545 168.41249 
L 221.8752 174.471706 
L 222.199855 155.67928 
L 222.524509 154.612079 
L 222.849164 160.266156 
L 223.173818 160.341716 
L 223.498473 153.458348 
L 223.823127 168.957854 
L 224.472436 119.259738 
L 224.797091 137.380794 
L 225.121745 171.295964 
L 225.4464 153.828328 
L 225.771055 174.058458 
L 226.095709 159.548808 
L 226.420364 177.449298 
L 226.745018 153.289547 
L 227.069673 168.117808 
L 227.718982 116.88367 
L 228.043636 179.078097 
L 228.368291 132.142648 
L 228.692945 145.378946 
L 229.0176 108.866425 
L 229.342255 167.637077 
L 229.666909 159.459653 
L 229.991564 179.421423 
L 230.316218 140.864831 
L 230.640873 170.951807 
L 231.290182 118.861628 
L 231.614836 129.550419 
L 231.939491 132.285214 
L 232.264145 177.828163 
L 232.5888 173.705358 
L 232.913455 163.98367 
L 233.238109 125.443606 
L 233.887418 162.071582 
L 234.212073 153.183108 
L 234.536727 149.487193 
L 234.861382 166.705975 
L 235.186036 113.848133 
L 235.510691 159.118841 
L 236.16 115.306187 
L 236.484655 165.524542 
L 236.809309 131.606939 
L 237.133964 142.389005 
L 237.458618 144.587774 
L 237.783273 123.873689 
L 238.107927 113.452671 
L 238.432582 151.062832 
L 238.757236 128.888242 
L 239.081891 164.765863 
L 239.406545 145.362301 
L 239.7312 108.674977 
L 240.055855 95.483744 
L 240.380509 121.568953 
L 240.705164 101.011379 
L 241.029818 111.305032 
L 241.354473 140.852732 
L 241.679127 143.947727 
L 242.003782 161.584964 
L 242.328436 137.425906 
L 242.653091 123.791036 
L 242.977745 158.322551 
L 243.3024 116.7104 
L 243.627055 160.926782 
L 243.951709 148.197432 
L 244.276364 53.568 
L 244.601018 157.892403 
L 244.925673 154.526477 
L 245.250327 127.653203 
L 245.899636 129.490972 
L 246.224291 216.937374 
L 246.548945 117.880283 
L 246.8736 150.801588 
L 247.198255 116.250529 
L 247.522909 124.473326 
L 247.847564 141.628951 
L 248.172218 98.747273 
L 248.496873 138.006588 
L 248.821527 160.364367 
L 249.146182 133.542649 
L 249.470836 161.121177 
L 249.795491 137.473547 
L 250.120145 156.80316 
L 250.4448 159.872831 
L 250.769455 107.287976 
L 251.094109 159.162731 
L 251.418764 133.313892 
L 251.743418 139.631481 
L 252.068073 136.117022 
L 252.717382 117.683924 
L 253.042036 123.049551 
L 253.366691 103.097369 
L 253.691345 160.438649 
L 254.016 104.131565 
L 254.340655 126.79259 
L 254.665309 106.626536 
L 254.989964 156.222271 
L 255.314618 141.569407 
L 255.639273 112.57386 
L 256.288582 166.755847 
L 256.613236 105.606363 
L 256.937891 127.66586 
L 257.262545 171.54098 
L 257.5872 129.099051 
L 257.911855 132.831271 
L 258.236509 163.645762 
L 258.561164 134.169028 
L 258.885818 130.006355 
L 259.210473 124.298167 
L 259.535127 156.172259 
L 259.859782 115.04239 
L 260.184436 112.45817 
L 260.509091 121.366658 
L 260.833745 125.819414 
L 261.1584 136.190151 
L 261.483055 139.310967 
L 261.807709 139.671185 
L 262.132364 118.290057 
L 262.457018 124.70059 
L 262.781673 163.296168 
L 263.106327 119.710233 
L 263.430982 104.712934 
L 263.755636 105.383244 
L 264.080291 109.529547 
L 264.404945 157.484767 
L 264.7296 120.420427 
L 265.054255 150.872654 
L 265.378909 124.017393 
L 265.703564 124.42097 
L 266.028218 173.976942 
L 266.677527 137.988903 
L 267.002182 167.564857 
L 267.326836 164.466888 
L 267.651491 154.783002 
L 267.976145 168.703468 
L 268.3008 125.609627 
L 268.625455 162.703283 
L 268.950109 131.120563 
L 269.274764 150.681728 
L 269.599418 118.881977 
L 269.924073 134.44054 
L 270.248727 160.838489 
L 270.898036 134.244928 
L 271.222691 134.081201 
L 271.547345 166.584864 
L 271.872 142.443282 
L 272.196655 147.582804 
L 272.521309 145.157983 
L 272.845964 127.871471 
L 273.170618 179.497448 
L 273.495273 138.719932 
L 273.819927 153.0895 
L 274.469236 202.221919 
L 274.793891 140.659002 
L 275.118545 139.48826 
L 275.4432 141.241015 
L 276.092509 184.52906 
L 276.417164 160.710204 
L 276.741818 194.712159 
L 277.066473 168.450293 
L 277.391127 189.063782 
L 277.715782 194.837279 
L 278.040436 163.587985 
L 278.365091 188.021289 
L 278.689745 190.888453 
L 279.0144 163.853878 
L 279.339055 190.656764 
L 279.988364 140.908811 
L 280.313018 146.568983 
L 280.637673 161.767321 
L 280.962327 169.459832 
L 281.286982 148.044743 
L 281.611636 167.199937 
L 281.936291 174.555136 
L 282.260945 198.217325 
L 282.5856 158.518827 
L 282.910255 174.151444 
L 283.559564 154.140199 
L 283.884218 181.889987 
L 284.208873 195.276775 
L 284.533527 162.920263 
L 284.858182 191.681976 
L 285.182836 163.287556 
L 285.507491 179.632699 
L 285.832145 184.024236 
L 286.1568 164.95261 
L 286.481455 177.875929 
L 286.806109 168.090864 
L 287.130764 94.948734 
L 287.455418 130.391303 
L 287.780073 180.417539 
L 288.104727 136.845784 
L 288.429382 66.868801 
L 288.754036 175.43409 
L 289.078691 226.698927 
L 289.403345 187.605824 
L 289.728 171.732529 
L 290.052655 278.606577 
L 290.377309 139.816255 
L 290.701964 169.948009 
L 291.026618 136.345732 
L 291.351273 165.675079 
L 291.675927 148.033278 
L 292.000582 173.712332 
L 292.325236 142.394507 
L 292.649891 175.490485 
L 292.974545 190.596157 
L 293.2992 151.362295 
L 293.623855 148.564614 
L 293.948509 157.389944 
L 294.273164 142.788731 
L 294.597818 190.477218 
L 294.922473 145.654159 
L 295.247127 155.107075 
L 295.571782 139.558012 
L 295.896436 172.319366 
L 296.221091 137.508005 
L 296.545745 145.883602 
L 296.8704 188.174843 
L 297.195055 196.585426 
L 297.519709 194.019312 
L 297.844364 152.884138 
L 298.169018 133.537 
L 298.493673 191.186449 
L 298.818327 198.865493 
L 299.142982 153.509794 
L 299.467636 153.188903 
L 299.792291 180.217281 
L 300.116945 160.163487 
L 300.4416 170.356785 
L 300.766255 138.909891 
L 301.090909 182.868312 
L 301.415564 154.407144 
L 301.740218 204.052843 
L 302.064873 172.545906 
L 302.389527 194.442187 
L 302.714182 191.892791 
L 303.038836 162.640929 
L 303.363491 190.187554 
L 303.688145 153.437672 
L 304.0128 295.488 
L 304.337455 163.449632 
L 304.662109 185.106716 
L 304.986764 168.529722 
L 305.311418 142.437991 
L 305.636073 147.44519 
L 305.960727 193.56731 
L 306.285382 158.745248 
L 306.610036 207.347397 
L 306.934691 190.364283 
L 307.259345 213.995808 
L 307.584 203.416995 
L 308.233309 151.311564 
L 308.557964 208.686309 
L 308.882618 208.225357 
L 309.207273 212.860541 
L 309.856582 167.566429 
L 310.181236 157.930526 
L 310.505891 216.890171 
L 311.1552 159.212026 
L 311.479855 163.822504 
L 311.804509 215.185523 
L 312.129164 200.068071 
L 312.453818 218.198352 
L 312.778473 186.440719 
L 313.103127 210.006645 
L 313.427782 164.915554 
L 313.752436 163.371141 
L 314.077091 183.3414 
L 314.401745 159.149448 
L 314.7264 163.338096 
L 315.375709 149.212818 
L 316.025018 204.52439 
L 316.349673 189.730587 
L 316.674327 161.596353 
L 316.998982 152.697001 
L 317.323636 154.951637 
L 317.972945 190.090895 
L 318.2976 197.549714 
L 318.622255 157.91658 
L 318.946909 205.951306 
L 319.271564 187.572239 
L 319.596218 215.098073 
L 319.920873 194.025206 
L 320.245527 151.644027 
L 320.570182 184.624624 
L 320.894836 183.437254 
L 321.219491 217.007313 
L 321.544145 183.632466 
L 321.8688 203.426075 
L 322.193455 192.074453 
L 322.518109 175.263347 
L 322.842764 165.981953 
L 323.167418 204.977918 
L 323.492073 189.61088 
L 323.816727 152.895256 
L 324.141382 179.654601 
L 324.466036 167.807754 
L 324.790691 211.350201 
L 325.115345 212.795579 
L 325.44 175.974422 
L 325.764655 189.200059 
L 326.089309 210.702517 
L 326.413964 193.946164 
L 326.738618 216.031777 
L 327.063273 213.892344 
L 327.387927 155.650699 
L 328.037236 219.725829 
L 328.686545 147.784433 
L 329.0112 210.347905 
L 329.335855 210.217842 
L 329.660509 212.32831 
L 329.985164 158.718449 
L 330.309818 205.573725 
L 330.634473 166.996226 
L 330.959127 214.494477 
L 331.608436 196.652792 
L 331.933091 166.010213 
L 332.257745 177.61461 
L 332.5824 157.244269 
L 332.907055 165.118695 
L 333.231709 184.208844 
L 333.556364 180.588752 
L 333.881018 163.363059 
L 334.205673 187.678879 
L 334.530327 170.753461 
L 334.854982 178.555407 
L 335.179636 210.478976 
L 335.504291 159.175879 
L 335.828945 189.628989 
L 336.478255 154.677892 
L 336.802909 157.517263 
L 337.452218 219.490994 
L 337.776873 206.616505 
L 338.101527 184.93035 
L 338.750836 193.9759 
L 339.075491 197.72274 
L 339.400145 214.829435 
L 339.7248 172.213883 
L 340.049455 209.897742 
L 340.374109 226.041933 
L 340.698764 198.720152 
L 341.023418 199.242283 
L 341.348073 210.24039 
L 341.672727 229.253343 
L 341.997382 185.815908 
L 342.322036 183.454964 
L 342.646691 233.589843 
L 342.971345 192.008417 
L 343.296 247.481536 
L 343.620655 198.346317 
L 343.945309 238.315155 
L 344.269964 231.422596 
L 344.594618 191.954719 
L 344.919273 229.14029 
L 345.243927 206.092404 
L 345.568582 238.778467 
L 345.893236 181.625184 
L 346.217891 232.267939 
L 346.542545 196.923705 
L 346.8672 207.584856 
L 347.191855 200.64461 
L 347.516509 248.155519 
L 347.841164 198.903319 
L 348.490473 212.317345 
L 348.815127 237.86043 
L 349.464436 182.139477 
L 349.789091 177.582002 
L 350.113745 238.621523 
L 350.4384 212.192751 
L 350.763055 226.245488 
L 351.087709 201.837433 
L 351.412364 198.487065 
L 351.737018 178.715436 
L 352.061673 208.767345 
L 352.386327 189.352469 
L 353.035636 216.09961 
L 353.360291 230.645263 
L 353.684945 206.687631 
L 354.0096 229.55767 
L 354.334255 225.74436 
L 354.658909 237.347747 
L 354.983564 236.371095 
L 355.308218 176.661259 
L 355.632873 222.954715 
L 355.957527 207.823544 
L 356.282182 208.796425 
L 356.606836 230.060976 
L 356.931491 232.405299 
L 357.905455 175.971914 
L 358.230109 181.834628 
L 358.554764 173.90184 
L 358.879418 215.473445 
L 359.204073 179.507369 
L 359.528727 167.858374 
L 359.853382 182.320572 
L 360.178036 182.824863 
L 360.502691 222.804313 
L 360.827345 203.944742 
L 361.152 167.759968 
L 361.476655 167.809922 
L 361.801309 224.405237 
L 362.125964 216.321471 
L 362.450618 188.028944 
L 362.775273 196.194074 
L 363.099927 229.930108 
L 363.424582 196.637181 
L 363.749236 230.3084 
L 364.073891 174.97464 
L 364.398545 191.389052 
L 364.7232 170.611256 
L 365.047855 208.798351 
L 365.372509 230.345123 
L 365.697164 187.400497 
L 366.021818 173.506115 
L 366.346473 218.361518 
L 366.671127 219.324569 
L 366.995782 164.951436 
L 367.320436 202.551924 
L 367.645091 174.84211 
L 367.969745 188.994416 
L 368.2944 195.810508 
L 368.619055 184.850887 
L 368.943709 167.382017 
L 369.268364 222.021394 
L 369.593018 208.188674 
L 369.917673 166.079494 
L 370.242327 202.726532 
L 370.566982 215.372475 
L 370.891636 206.902611 
L 371.216291 236.135634 
L 371.540945 203.812885 
L 371.8656 188.5699 
L 372.190255 210.728495 
L 372.514909 215.732694 
L 372.839564 171.927316 
L 373.164218 231.585773 
L 373.488873 184.257551 
L 373.813527 179.849876 
L 374.138182 226.157495 
L 374.462836 245.741214 
L 375.112145 239.00611 
L 375.4368 215.511155 
L 375.761455 218.407663 
L 376.086109 219.081988 
L 376.410764 212.281047 
L 376.735418 238.294025 
L 377.060073 194.305752 
L 377.384727 223.039833 
L 377.709382 226.570344 
L 378.034036 217.986625 
L 378.683345 180.581981 
L 379.008 196.489233 
L 379.332655 206.109801 
L 379.657309 186.984922 
L 379.981964 200.945579 
L 380.306618 189.962507 
L 380.631273 234.142245 
L 380.955927 199.413871 
L 381.280582 179.900977 
L 381.605236 225.793846 
L 381.929891 169.557301 
L 382.254545 218.28135 
L 382.5792 171.440258 
L 382.903855 200.619047 
L 383.228509 216.80894 
L 383.553164 170.495444 
L 383.877818 220.641572 
L 384.202473 177.157432 
L 384.527127 171.396081 
L 384.851782 175.192439 
L 385.176436 166.133714 
L 385.501091 195.338271 
L 385.825745 168.931398 
L 386.1504 179.913288 
L 386.475055 177.751298 
L 386.799709 221.678244 
L 387.124364 233.258342 
L 387.773673 202.403389 
L 388.098327 222.023544 
L 388.422982 176.6689 
L 388.747636 209.945847 
L 389.072291 229.839561 
L 389.7216 191.532314 
L 390.046255 212.341514 
L 390.370909 171.713987 
L 390.695564 187.313131 
L 391.020218 186.236938 
L 391.344873 230.720956 
L 391.669527 224.383206 
L 391.994182 220.90088 
L 392.318836 189.212645 
L 392.968145 217.559543 
L 393.2928 184.488615 
L 393.617455 230.77197 
L 393.942109 174.008257 
L 394.591418 201.089287 
L 394.916073 176.320375 
L 395.565382 245.078411 
L 395.890036 190.664841 
L 396.214691 221.990891 
L 396.539345 201.290198 
L 396.864 224.080856 
L 397.188655 210.823388 
L 397.513309 191.0732 
L 397.837964 192.322868 
L 398.487273 185.349273 
L 398.487273 185.349273 
" style="fill:none;stroke:#1f77b4;stroke-linecap:square;stroke-width:1.5;"/>
   </g>
   <g id="patch_3">
    <path d="M 57.6 307.584 
L 57.6 41.472 
" style="fill:none;stroke:#000000;stroke-linecap:square;stroke-linejoin:miter;stroke-width:0.8;"/>
   </g>
   <g id="patch_4">
    <path d="M 414.72 307.584 
L 414.72 41.472 
" style="fill:none;stroke:#000000;stroke-linecap:square;stroke-linejoin:miter;stroke-width:0.8;"/>
   </g>
   <g id="patch_5">
    <path d="M 57.6 307.584 
L 414.72 307.584 
" style="fill:none;stroke:#000000;stroke-linecap:square;stroke-linejoin:miter;stroke-width:0.8;"/>
   </g>
   <g id="patch_6">
    <path d="M 57.6 41.472 
L 414.72 41.472 
" style="fill:none;stroke:#000000;stroke-linecap:square;stroke-linejoin:miter;stroke-width:0.8;"/>
   </g>
   <g id="text_17">
    <!-- White, brown, and spike noise combined -->
    <g transform="translate(114.45375 35.472)scale(0.12 -0.12)">
     <defs>
      <path d="M 3.328125 72.90625 
L 13.28125 72.90625 
L 28.609375 11.28125 
L 43.890625 72.90625 
L 54.984375 72.90625 
L 70.3125 11.28125 
L 85.59375 72.90625 
L 95.609375 72.90625 
L 77.296875 0 
L 64.890625 0 
L 49.515625 63.28125 
L 33.984375 0 
L 21.578125 0 
z
" id="DejaVuSans-87"/>
      <path d="M 54.890625 33.015625 
L 54.890625 0 
L 45.90625 0 
L 45.90625 32.71875 
Q 45.90625 40.484375 42.875 44.328125 
Q 39.84375 48.1875 33.796875 48.1875 
Q 26.515625 48.1875 22.3125 43.546875 
Q 18.109375 38.921875 18.109375 30.90625 
L 18.109375 0 
L 9.078125 0 
L 9.078125 75.984375 
L 18.109375 75.984375 
L 18.109375 46.1875 
Q 21.34375 51.125 25.703125 53.5625 
Q 30.078125 56 35.796875 56 
Q 45.21875 56 50.046875 50.171875 
Q 54.890625 44.34375 54.890625 33.015625 
z
" id="DejaVuSans-104"/>
      <path d="M 11.71875 12.40625 
L 22.015625 12.40625 
L 22.015625 4 
L 14.015625 -11.625 
L 7.71875 -11.625 
L 11.71875 4 
z
" id="DejaVuSans-44"/>
      <path id="DejaVuSans-32"/>
      <path d="M 48.6875 27.296875 
Q 48.6875 37.203125 44.609375 42.84375 
Q 40.53125 48.484375 33.40625 48.484375 
Q 26.265625 48.484375 22.1875 42.84375 
Q 18.109375 37.203125 18.109375 27.296875 
Q 18.109375 17.390625 22.1875 11.75 
Q 26.265625 6.109375 33.40625 6.109375 
Q 40.53125 6.109375 44.609375 11.75 
Q 48.6875 17.390625 48.6875 27.296875 
z
M 18.109375 46.390625 
Q 20.953125 51.265625 25.265625 53.625 
Q 29.59375 56 35.59375 56 
Q 45.5625 56 51.78125 48.09375 
Q 58.015625 40.1875 58.015625 27.296875 
Q 58.015625 14.40625 51.78125 6.484375 
Q 45.5625 -1.421875 35.59375 -1.421875 
Q 29.59375 -1.421875 25.265625 0.953125 
Q 20.953125 3.328125 18.109375 8.203125 
L 18.109375 0 
L 9.078125 0 
L 9.078125 75.984375 
L 18.109375 75.984375 
z
" id="DejaVuSans-98"/>
      <path d="M 41.109375 46.296875 
Q 39.59375 47.171875 37.8125 47.578125 
Q 36.03125 48 33.890625 48 
Q 26.265625 48 22.1875 43.046875 
Q 18.109375 38.09375 18.109375 28.8125 
L 18.109375 0 
L 9.078125 0 
L 9.078125 54.6875 
L 18.109375 54.6875 
L 18.109375 46.1875 
Q 20.953125 51.171875 25.484375 53.578125 
Q 30.03125 56 36.53125 56 
Q 37.453125 56 38.578125 55.875 
Q 39.703125 55.765625 41.0625 55.515625 
z
" id="DejaVuSans-114"/>
      <path d="M 4.203125 54.6875 
L 13.1875 54.6875 
L 24.421875 12.015625 
L 35.59375 54.6875 
L 46.1875 54.6875 
L 57.421875 12.015625 
L 68.609375 54.6875 
L 77.59375 54.6875 
L 63.28125 0 
L 52.6875 0 
L 40.921875 44.828125 
L 29.109375 0 
L 18.5 0 
z
" id="DejaVuSans-119"/>
      <path d="M 34.28125 27.484375 
Q 23.390625 27.484375 19.1875 25 
Q 14.984375 22.515625 14.984375 16.5 
Q 14.984375 11.71875 18.140625 8.90625 
Q 21.296875 6.109375 26.703125 6.109375 
Q 34.1875 6.109375 38.703125 11.40625 
Q 43.21875 16.703125 43.21875 25.484375 
L 43.21875 27.484375 
z
M 52.203125 31.203125 
L 52.203125 0 
L 43.21875 0 
L 43.21875 8.296875 
Q 40.140625 3.328125 35.546875 0.953125 
Q 30.953125 -1.421875 24.3125 -1.421875 
Q 15.921875 -1.421875 10.953125 3.296875 
Q 6 8.015625 6 15.921875 
Q 6 25.140625 12.171875 29.828125 
Q 18.359375 34.515625 30.609375 34.515625 
L 43.21875 34.515625 
L 43.21875 35.40625 
Q 43.21875 41.609375 39.140625 45 
Q 35.0625 48.390625 27.6875 48.390625 
Q 23 48.390625 18.546875 47.265625 
Q 14.109375 46.140625 10.015625 43.890625 
L 10.015625 52.203125 
Q 14.9375 54.109375 19.578125 55.046875 
Q 24.21875 56 28.609375 56 
Q 40.484375 56 46.34375 49.84375 
Q 52.203125 43.703125 52.203125 31.203125 
z
" id="DejaVuSans-97"/>
      <path d="M 45.40625 46.390625 
L 45.40625 75.984375 
L 54.390625 75.984375 
L 54.390625 0 
L 45.40625 0 
L 45.40625 8.203125 
Q 42.578125 3.328125 38.25 0.953125 
Q 33.9375 -1.421875 27.875 -1.421875 
Q 17.96875 -1.421875 11.734375 6.484375 
Q 5.515625 14.40625 5.515625 27.296875 
Q 5.515625 40.1875 11.734375 48.09375 
Q 17.96875 56 27.875 56 
Q 33.9375 56 38.25 53.625 
Q 42.578125 51.265625 45.40625 46.390625 
z
M 14.796875 27.296875 
Q 14.796875 17.390625 18.875 11.75 
Q 22.953125 6.109375 30.078125 6.109375 
Q 37.203125 6.109375 41.296875 11.75 
Q 45.40625 17.390625 45.40625 27.296875 
Q 45.40625 37.203125 41.296875 42.84375 
Q 37.203125 48.484375 30.078125 48.484375 
Q 22.953125 48.484375 18.875 42.84375 
Q 14.796875 37.203125 14.796875 27.296875 
z
" id="DejaVuSans-100"/>
      <path d="M 18.109375 8.203125 
L 18.109375 -20.796875 
L 9.078125 -20.796875 
L 9.078125 54.6875 
L 18.109375 54.6875 
L 18.109375 46.390625 
Q 20.953125 51.265625 25.265625 53.625 
Q 29.59375 56 35.59375 56 
Q 45.5625 56 51.78125 48.09375 
Q 58.015625 40.1875 58.015625 27.296875 
Q 58.015625 14.40625 51.78125 6.484375 
Q 45.5625 -1.421875 35.59375 -1.421875 
Q 29.59375 -1.421875 25.265625 0.953125 
Q 20.953125 3.328125 18.109375 8.203125 
z
M 48.6875 27.296875 
Q 48.6875 37.203125 44.609375 42.84375 
Q 40.53125 48.484375 33.40625 48.484375 
Q 26.265625 48.484375 22.1875 42.84375 
Q 18.109375 37.203125 18.109375 27.296875 
Q 18.109375 17.390625 22.1875 11.75 
Q 26.265625 6.109375 33.40625 6.109375 
Q 40.53125 6.109375 44.609375 11.75 
Q 48.6875 17.390625 48.6875 27.296875 
z
" id="DejaVuSans-112"/>
      <path d="M 9.078125 75.984375 
L 18.109375 75.984375 
L 18.109375 31.109375 
L 44.921875 54.6875 
L 56.390625 54.6875 
L 27.390625 29.109375 
L 57.625 0 
L 45.90625 0 
L 18.109375 26.703125 
L 18.109375 0 
L 9.078125 0 
z
" id="DejaVuSans-107"/>
      <path d="M 48.78125 52.59375 
L 48.78125 44.1875 
Q 44.96875 46.296875 41.140625 47.34375 
Q 37.3125 48.390625 33.40625 48.390625 
Q 24.65625 48.390625 19.8125 42.84375 
Q 14.984375 37.3125 14.984375 27.296875 
Q 14.984375 17.28125 19.8125 11.734375 
Q 24.65625 6.203125 33.40625 6.203125 
Q 37.3125 6.203125 41.140625 7.25 
Q 44.96875 8.296875 48.78125 10.40625 
L 48.78125 2.09375 
Q 45.015625 0.34375 40.984375 -0.53125 
Q 36.96875 -1.421875 32.421875 -1.421875 
Q 20.0625 -1.421875 12.78125 6.34375 
Q 5.515625 14.109375 5.515625 27.296875 
Q 5.515625 40.671875 12.859375 48.328125 
Q 20.21875 56 33.015625 56 
Q 37.15625 56 41.109375 55.140625 
Q 45.0625 54.296875 48.78125 52.59375 
z
" id="DejaVuSans-99"/>
     </defs>
     <use xlink:href="#DejaVuSans-87"/>
     <use x="98.876953" xlink:href="#DejaVuSans-104"/>
     <use x="162.255859" xlink:href="#DejaVuSans-105"/>
     <use x="190.039062" xlink:href="#DejaVuSans-116"/>
     <use x="229.248047" xlink:href="#DejaVuSans-101"/>
     <use x="290.771484" xlink:href="#DejaVuSans-44"/>
     <use x="322.558594" xlink:href="#DejaVuSans-32"/>
     <use x="354.345703" xlink:href="#DejaVuSans-98"/>
     <use x="417.822266" xlink:href="#DejaVuSans-114"/>
     <use x="456.685547" xlink:href="#DejaVuSans-111"/>
     <use x="517.867188" xlink:href="#DejaVuSans-119"/>
     <use x="599.654297" xlink:href="#DejaVuSans-110"/>
     <use x="663.033203" xlink:href="#DejaVuSans-44"/>
     <use x="694.820312" xlink:href="#DejaVuSans-32"/>
     <use x="726.607422" xlink:href="#DejaVuSans-97"/>
     <use x="787.886719" xlink:href="#DejaVuSans-110"/>
     <use x="851.265625" xlink:href="#DejaVuSans-100"/>
     <use x="914.742188" xlink:href="#DejaVuSans-32"/>
     <use x="946.529297" xlink:href="#DejaVuSans-115"/>
     <use x="998.628906" xlink:href="#DejaVuSans-112"/>
     <use x="1062.105469" xlink:href="#DejaVuSans-105"/>
     <use x="1089.888672" xlink:href="#DejaVuSans-107"/>
     <use x="1144.173828" xlink:href="#DejaVuSans-101"/>
     <use x="1205.697266" xlink:href="#DejaVuSans-32"/>
     <use x="1237.484375" xlink:href="#DejaVuSans-110"/>
     <use x="1300.863281" xlink:href="#DejaVuSans-111"/>
     <use x="1362.044922" xlink:href="#DejaVuSans-105"/>
     <use x="1389.828125" xlink:href="#DejaVuSans-115"/>
     <use x="1441.927734" xlink:href="#DejaVuSans-101"/>
     <use x="1503.451172" xlink:href="#DejaVuSans-32"/>
     <use x="1535.238281" xlink:href="#DejaVuSans-99"/>
     <use x="1590.21875" xlink:href="#DejaVuSans-111"/>
     <use x="1651.400391" xlink:href="#DejaVuSans-109"/>
     <use x="1748.8125" xlink:href="#DejaVuSans-98"/>
     <use x="1812.289062" xlink:href="#DejaVuSans-105"/>
     <use x="1840.072266" xlink:href="#DejaVuSans-110"/>
     <use x="1903.451172" xlink:href="#DejaVuSans-101"/>
     <use x="1964.974609" xlink:href="#DejaVuSans-100"/>
    </g>
   </g>
  </g>
 </g>
 <defs>
  <clipPath id="pf494c51940">
   <rect height="266.112" width="357.12" x="57.6" y="41.472"/>
  </clipPath>
 </defs>
</svg>
