<?xml version="1.0" encoding="utf-8" standalone="no"?>
<!DOCTYPE svg PUBLIC "-//W3C//DTD SVG 1.1//EN"
  "http://www.w3.org/Graphics/SVG/1.1/DTD/svg11.dtd">
<!-- Created with matplotlib (https://matplotlib.org/) -->
<svg height="345.6pt" version="1.1" viewBox="0 0 460.8 345.6" width="460.8pt" xmlns="http://www.w3.org/2000/svg" xmlns:xlink="http://www.w3.org/1999/xlink">
 <metadata>
  <rdf:RDF xmlns:cc="http://creativecommons.org/ns#" xmlns:dc="http://purl.org/dc/elements/1.1/" xmlns:rdf="http://www.w3.org/1999/02/22-rdf-syntax-ns#">
   <cc:Work>
    <dc:type rdf:resource="http://purl.org/dc/dcmitype/StillImage"/>
    <dc:date>2021-04-25T13:51:21.459160</dc:date>
    <dc:format>image/svg+xml</dc:format>
    <dc:creator>
     <cc:Agent>
      <dc:title>Matplotlib v3.3.4, https://matplotlib.org/</dc:title>
     </cc:Agent>
    </dc:creator>
   </cc:Work>
  </rdf:RDF>
 </metadata>
 <defs>
  <style type="text/css">*{stroke-linecap:butt;stroke-linejoin:round;}</style>
 </defs>
 <g id="figure_1">
  <g id="patch_1">
   <path d="M 0 345.6 
L 460.8 345.6 
L 460.8 0 
L 0 0 
z
" style="fill:#ffffff;"/>
  </g>
  <g id="axes_1">
   <g id="patch_2">
    <path d="M 57.6 307.584 
L 414.72 307.584 
L 414.72 41.472 
L 57.6 41.472 
z
" style="fill:#ffffff;"/>
   </g>
   <g id="matplotlib.axis_1">
    <g id="xtick_1">
     <g id="line2d_1">
      <defs>
       <path d="M 0 0 
L 0 3.5 
" id="m0744b91f22" style="stroke:#000000;stroke-width:0.8;"/>
      </defs>
      <g>
       <use style="stroke:#000000;stroke-width:0.8;" x="73.832727" xlink:href="#m0744b91f22" y="307.584"/>
      </g>
     </g>
     <g id="text_1">
      <!-- 0 -->
      <g transform="translate(70.651477 322.182437)scale(0.1 -0.1)">
       <defs>
        <path d="M 31.78125 66.40625 
Q 24.171875 66.40625 20.328125 58.90625 
Q 16.5 51.421875 16.5 36.375 
Q 16.5 21.390625 20.328125 13.890625 
Q 24.171875 6.390625 31.78125 6.390625 
Q 39.453125 6.390625 43.28125 13.890625 
Q 47.125 21.390625 47.125 36.375 
Q 47.125 51.421875 43.28125 58.90625 
Q 39.453125 66.40625 31.78125 66.40625 
z
M 31.78125 74.21875 
Q 44.046875 74.21875 50.515625 64.515625 
Q 56.984375 54.828125 56.984375 36.375 
Q 56.984375 17.96875 50.515625 8.265625 
Q 44.046875 -1.421875 31.78125 -1.421875 
Q 19.53125 -1.421875 13.0625 8.265625 
Q 6.59375 17.96875 6.59375 36.375 
Q 6.59375 54.828125 13.0625 64.515625 
Q 19.53125 74.21875 31.78125 74.21875 
z
" id="DejaVuSans-48"/>
       </defs>
       <use xlink:href="#DejaVuSans-48"/>
      </g>
     </g>
    </g>
    <g id="xtick_2">
     <g id="line2d_2">
      <g>
       <use style="stroke:#000000;stroke-width:0.8;" x="138.763636" xlink:href="#m0744b91f22" y="307.584"/>
      </g>
     </g>
     <g id="text_2">
      <!-- 20 -->
      <g transform="translate(132.401136 322.182437)scale(0.1 -0.1)">
       <defs>
        <path d="M 19.1875 8.296875 
L 53.609375 8.296875 
L 53.609375 0 
L 7.328125 0 
L 7.328125 8.296875 
Q 12.9375 14.109375 22.625 23.890625 
Q 32.328125 33.6875 34.8125 36.53125 
Q 39.546875 41.84375 41.421875 45.53125 
Q 43.3125 49.21875 43.3125 52.78125 
Q 43.3125 58.59375 39.234375 62.25 
Q 35.15625 65.921875 28.609375 65.921875 
Q 23.96875 65.921875 18.8125 64.3125 
Q 13.671875 62.703125 7.8125 59.421875 
L 7.8125 69.390625 
Q 13.765625 71.78125 18.9375 73 
Q 24.125 74.21875 28.421875 74.21875 
Q 39.75 74.21875 46.484375 68.546875 
Q 53.21875 62.890625 53.21875 53.421875 
Q 53.21875 48.921875 51.53125 44.890625 
Q 49.859375 40.875 45.40625 35.40625 
Q 44.1875 33.984375 37.640625 27.21875 
Q 31.109375 20.453125 19.1875 8.296875 
z
" id="DejaVuSans-50"/>
       </defs>
       <use xlink:href="#DejaVuSans-50"/>
       <use x="63.623047" xlink:href="#DejaVuSans-48"/>
      </g>
     </g>
    </g>
    <g id="xtick_3">
     <g id="line2d_3">
      <g>
       <use style="stroke:#000000;stroke-width:0.8;" x="203.694545" xlink:href="#m0744b91f22" y="307.584"/>
      </g>
     </g>
     <g id="text_3">
      <!-- 40 -->
      <g transform="translate(197.332045 322.182437)scale(0.1 -0.1)">
       <defs>
        <path d="M 37.796875 64.3125 
L 12.890625 25.390625 
L 37.796875 25.390625 
z
M 35.203125 72.90625 
L 47.609375 72.90625 
L 47.609375 25.390625 
L 58.015625 25.390625 
L 58.015625 17.1875 
L 47.609375 17.1875 
L 47.609375 0 
L 37.796875 0 
L 37.796875 17.1875 
L 4.890625 17.1875 
L 4.890625 26.703125 
z
" id="DejaVuSans-52"/>
       </defs>
       <use xlink:href="#DejaVuSans-52"/>
       <use x="63.623047" xlink:href="#DejaVuSans-48"/>
      </g>
     </g>
    </g>
    <g id="xtick_4">
     <g id="line2d_4">
      <g>
       <use style="stroke:#000000;stroke-width:0.8;" x="268.625455" xlink:href="#m0744b91f22" y="307.584"/>
      </g>
     </g>
     <g id="text_4">
      <!-- 60 -->
      <g transform="translate(262.262955 322.182437)scale(0.1 -0.1)">
       <defs>
        <path d="M 33.015625 40.375 
Q 26.375 40.375 22.484375 35.828125 
Q 18.609375 31.296875 18.609375 23.390625 
Q 18.609375 15.53125 22.484375 10.953125 
Q 26.375 6.390625 33.015625 6.390625 
Q 39.65625 6.390625 43.53125 10.953125 
Q 47.40625 15.53125 47.40625 23.390625 
Q 47.40625 31.296875 43.53125 35.828125 
Q 39.65625 40.375 33.015625 40.375 
z
M 52.59375 71.296875 
L 52.59375 62.3125 
Q 48.875 64.0625 45.09375 64.984375 
Q 41.3125 65.921875 37.59375 65.921875 
Q 27.828125 65.921875 22.671875 59.328125 
Q 17.53125 52.734375 16.796875 39.40625 
Q 19.671875 43.65625 24.015625 45.921875 
Q 28.375 48.1875 33.59375 48.1875 
Q 44.578125 48.1875 50.953125 41.515625 
Q 57.328125 34.859375 57.328125 23.390625 
Q 57.328125 12.15625 50.6875 5.359375 
Q 44.046875 -1.421875 33.015625 -1.421875 
Q 20.359375 -1.421875 13.671875 8.265625 
Q 6.984375 17.96875 6.984375 36.375 
Q 6.984375 53.65625 15.1875 63.9375 
Q 23.390625 74.21875 37.203125 74.21875 
Q 40.921875 74.21875 44.703125 73.484375 
Q 48.484375 72.75 52.59375 71.296875 
z
" id="DejaVuSans-54"/>
       </defs>
       <use xlink:href="#DejaVuSans-54"/>
       <use x="63.623047" xlink:href="#DejaVuSans-48"/>
      </g>
     </g>
    </g>
    <g id="xtick_5">
     <g id="line2d_5">
      <g>
       <use style="stroke:#000000;stroke-width:0.8;" x="333.556364" xlink:href="#m0744b91f22" y="307.584"/>
      </g>
     </g>
     <g id="text_5">
      <!-- 80 -->
      <g transform="translate(327.193864 322.182437)scale(0.1 -0.1)">
       <defs>
        <path d="M 31.78125 34.625 
Q 24.75 34.625 20.71875 30.859375 
Q 16.703125 27.09375 16.703125 20.515625 
Q 16.703125 13.921875 20.71875 10.15625 
Q 24.75 6.390625 31.78125 6.390625 
Q 38.8125 6.390625 42.859375 10.171875 
Q 46.921875 13.96875 46.921875 20.515625 
Q 46.921875 27.09375 42.890625 30.859375 
Q 38.875 34.625 31.78125 34.625 
z
M 21.921875 38.8125 
Q 15.578125 40.375 12.03125 44.71875 
Q 8.5 49.078125 8.5 55.328125 
Q 8.5 64.0625 14.71875 69.140625 
Q 20.953125 74.21875 31.78125 74.21875 
Q 42.671875 74.21875 48.875 69.140625 
Q 55.078125 64.0625 55.078125 55.328125 
Q 55.078125 49.078125 51.53125 44.71875 
Q 48 40.375 41.703125 38.8125 
Q 48.828125 37.15625 52.796875 32.3125 
Q 56.78125 27.484375 56.78125 20.515625 
Q 56.78125 9.90625 50.3125 4.234375 
Q 43.84375 -1.421875 31.78125 -1.421875 
Q 19.734375 -1.421875 13.25 4.234375 
Q 6.78125 9.90625 6.78125 20.515625 
Q 6.78125 27.484375 10.78125 32.3125 
Q 14.796875 37.15625 21.921875 38.8125 
z
M 18.3125 54.390625 
Q 18.3125 48.734375 21.84375 45.5625 
Q 25.390625 42.390625 31.78125 42.390625 
Q 38.140625 42.390625 41.71875 45.5625 
Q 45.3125 48.734375 45.3125 54.390625 
Q 45.3125 60.0625 41.71875 63.234375 
Q 38.140625 66.40625 31.78125 66.40625 
Q 25.390625 66.40625 21.84375 63.234375 
Q 18.3125 60.0625 18.3125 54.390625 
z
" id="DejaVuSans-56"/>
       </defs>
       <use xlink:href="#DejaVuSans-56"/>
       <use x="63.623047" xlink:href="#DejaVuSans-48"/>
      </g>
     </g>
    </g>
    <g id="xtick_6">
     <g id="line2d_6">
      <g>
       <use style="stroke:#000000;stroke-width:0.8;" x="398.487273" xlink:href="#m0744b91f22" y="307.584"/>
      </g>
     </g>
     <g id="text_6">
      <!-- 100 -->
      <g transform="translate(388.943523 322.182437)scale(0.1 -0.1)">
       <defs>
        <path d="M 12.40625 8.296875 
L 28.515625 8.296875 
L 28.515625 63.921875 
L 10.984375 60.40625 
L 10.984375 69.390625 
L 28.421875 72.90625 
L 38.28125 72.90625 
L 38.28125 8.296875 
L 54.390625 8.296875 
L 54.390625 0 
L 12.40625 0 
z
" id="DejaVuSans-49"/>
       </defs>
       <use xlink:href="#DejaVuSans-49"/>
       <use x="63.623047" xlink:href="#DejaVuSans-48"/>
       <use x="127.246094" xlink:href="#DejaVuSans-48"/>
      </g>
     </g>
    </g>
    <g id="text_7">
     <!-- time -->
     <g transform="translate(224.863906 335.860562)scale(0.1 -0.1)">
      <defs>
       <path d="M 18.3125 70.21875 
L 18.3125 54.6875 
L 36.8125 54.6875 
L 36.8125 47.703125 
L 18.3125 47.703125 
L 18.3125 18.015625 
Q 18.3125 11.328125 20.140625 9.421875 
Q 21.96875 7.515625 27.59375 7.515625 
L 36.8125 7.515625 
L 36.8125 0 
L 27.59375 0 
Q 17.1875 0 13.234375 3.875 
Q 9.28125 7.765625 9.28125 18.015625 
L 9.28125 47.703125 
L 2.6875 47.703125 
L 2.6875 54.6875 
L 9.28125 54.6875 
L 9.28125 70.21875 
z
" id="DejaVuSans-116"/>
       <path d="M 9.421875 54.6875 
L 18.40625 54.6875 
L 18.40625 0 
L 9.421875 0 
z
M 9.421875 75.984375 
L 18.40625 75.984375 
L 18.40625 64.59375 
L 9.421875 64.59375 
z
" id="DejaVuSans-105"/>
       <path d="M 52 44.1875 
Q 55.375 50.25 60.0625 53.125 
Q 64.75 56 71.09375 56 
Q 79.640625 56 84.28125 50.015625 
Q 88.921875 44.046875 88.921875 33.015625 
L 88.921875 0 
L 79.890625 0 
L 79.890625 32.71875 
Q 79.890625 40.578125 77.09375 44.375 
Q 74.3125 48.1875 68.609375 48.1875 
Q 61.625 48.1875 57.5625 43.546875 
Q 53.515625 38.921875 53.515625 30.90625 
L 53.515625 0 
L 44.484375 0 
L 44.484375 32.71875 
Q 44.484375 40.625 41.703125 44.40625 
Q 38.921875 48.1875 33.109375 48.1875 
Q 26.21875 48.1875 22.15625 43.53125 
Q 18.109375 38.875 18.109375 30.90625 
L 18.109375 0 
L 9.078125 0 
L 9.078125 54.6875 
L 18.109375 54.6875 
L 18.109375 46.1875 
Q 21.1875 51.21875 25.484375 53.609375 
Q 29.78125 56 35.6875 56 
Q 41.65625 56 45.828125 52.96875 
Q 50 49.953125 52 44.1875 
z
" id="DejaVuSans-109"/>
       <path d="M 56.203125 29.59375 
L 56.203125 25.203125 
L 14.890625 25.203125 
Q 15.484375 15.921875 20.484375 11.0625 
Q 25.484375 6.203125 34.421875 6.203125 
Q 39.59375 6.203125 44.453125 7.46875 
Q 49.3125 8.734375 54.109375 11.28125 
L 54.109375 2.78125 
Q 49.265625 0.734375 44.1875 -0.34375 
Q 39.109375 -1.421875 33.890625 -1.421875 
Q 20.796875 -1.421875 13.15625 6.1875 
Q 5.515625 13.8125 5.515625 26.8125 
Q 5.515625 40.234375 12.765625 48.109375 
Q 20.015625 56 32.328125 56 
Q 43.359375 56 49.78125 48.890625 
Q 56.203125 41.796875 56.203125 29.59375 
z
M 47.21875 32.234375 
Q 47.125 39.59375 43.09375 43.984375 
Q 39.0625 48.390625 32.421875 48.390625 
Q 24.90625 48.390625 20.390625 44.140625 
Q 15.875 39.890625 15.1875 32.171875 
z
" id="DejaVuSans-101"/>
      </defs>
      <use xlink:href="#DejaVuSans-116"/>
      <use x="39.208984" xlink:href="#DejaVuSans-105"/>
      <use x="66.992188" xlink:href="#DejaVuSans-109"/>
      <use x="164.404297" xlink:href="#DejaVuSans-101"/>
     </g>
    </g>
   </g>
   <g id="matplotlib.axis_2">
    <g id="ytick_1">
     <g id="line2d_7">
      <defs>
       <path d="M 0 0 
L -3.5 0 
" id="m2a8d70ffce" style="stroke:#000000;stroke-width:0.8;"/>
      </defs>
      <g>
       <use style="stroke:#000000;stroke-width:0.8;" x="57.6" xlink:href="#m2a8d70ffce" y="295.488"/>
      </g>
     </g>
     <g id="text_8">
      <!-- 0.0 -->
      <g transform="translate(34.696875 299.287219)scale(0.1 -0.1)">
       <defs>
        <path d="M 10.6875 12.40625 
L 21 12.40625 
L 21 0 
L 10.6875 0 
z
" id="DejaVuSans-46"/>
       </defs>
       <use xlink:href="#DejaVuSans-48"/>
       <use x="63.623047" xlink:href="#DejaVuSans-46"/>
       <use x="95.410156" xlink:href="#DejaVuSans-48"/>
      </g>
     </g>
    </g>
    <g id="ytick_2">
     <g id="line2d_8">
      <g>
       <use style="stroke:#000000;stroke-width:0.8;" x="57.6" xlink:href="#m2a8d70ffce" y="265.242247"/>
      </g>
     </g>
     <g id="text_9">
      <!-- 0.5 -->
      <g transform="translate(34.696875 269.041466)scale(0.1 -0.1)">
       <defs>
        <path d="M 10.796875 72.90625 
L 49.515625 72.90625 
L 49.515625 64.59375 
L 19.828125 64.59375 
L 19.828125 46.734375 
Q 21.96875 47.46875 24.109375 47.828125 
Q 26.265625 48.1875 28.421875 48.1875 
Q 40.625 48.1875 47.75 41.5 
Q 54.890625 34.8125 54.890625 23.390625 
Q 54.890625 11.625 47.5625 5.09375 
Q 40.234375 -1.421875 26.90625 -1.421875 
Q 22.3125 -1.421875 17.546875 -0.640625 
Q 12.796875 0.140625 7.71875 1.703125 
L 7.71875 11.625 
Q 12.109375 9.234375 16.796875 8.0625 
Q 21.484375 6.890625 26.703125 6.890625 
Q 35.15625 6.890625 40.078125 11.328125 
Q 45.015625 15.765625 45.015625 23.390625 
Q 45.015625 31 40.078125 35.4375 
Q 35.15625 39.890625 26.703125 39.890625 
Q 22.75 39.890625 18.8125 39.015625 
Q 14.890625 38.140625 10.796875 36.28125 
z
" id="DejaVuSans-53"/>
       </defs>
       <use xlink:href="#DejaVuSans-48"/>
       <use x="63.623047" xlink:href="#DejaVuSans-46"/>
       <use x="95.410156" xlink:href="#DejaVuSans-53"/>
      </g>
     </g>
    </g>
    <g id="ytick_3">
     <g id="line2d_9">
      <g>
       <use style="stroke:#000000;stroke-width:0.8;" x="57.6" xlink:href="#m2a8d70ffce" y="234.996495"/>
      </g>
     </g>
     <g id="text_10">
      <!-- 1.0 -->
      <g transform="translate(34.696875 238.795713)scale(0.1 -0.1)">
       <use xlink:href="#DejaVuSans-49"/>
       <use x="63.623047" xlink:href="#DejaVuSans-46"/>
       <use x="95.410156" xlink:href="#DejaVuSans-48"/>
      </g>
     </g>
    </g>
    <g id="ytick_4">
     <g id="line2d_10">
      <g>
       <use style="stroke:#000000;stroke-width:0.8;" x="57.6" xlink:href="#m2a8d70ffce" y="204.750742"/>
      </g>
     </g>
     <g id="text_11">
      <!-- 1.5 -->
      <g transform="translate(34.696875 208.549961)scale(0.1 -0.1)">
       <use xlink:href="#DejaVuSans-49"/>
       <use x="63.623047" xlink:href="#DejaVuSans-46"/>
       <use x="95.410156" xlink:href="#DejaVuSans-53"/>
      </g>
     </g>
    </g>
    <g id="ytick_5">
     <g id="line2d_11">
      <g>
       <use style="stroke:#000000;stroke-width:0.8;" x="57.6" xlink:href="#m2a8d70ffce" y="174.504989"/>
      </g>
     </g>
     <g id="text_12">
      <!-- 2.0 -->
      <g transform="translate(34.696875 178.304208)scale(0.1 -0.1)">
       <use xlink:href="#DejaVuSans-50"/>
       <use x="63.623047" xlink:href="#DejaVuSans-46"/>
       <use x="95.410156" xlink:href="#DejaVuSans-48"/>
      </g>
     </g>
    </g>
    <g id="ytick_6">
     <g id="line2d_12">
      <g>
       <use style="stroke:#000000;stroke-width:0.8;" x="57.6" xlink:href="#m2a8d70ffce" y="144.259236"/>
      </g>
     </g>
     <g id="text_13">
      <!-- 2.5 -->
      <g transform="translate(34.696875 148.058455)scale(0.1 -0.1)">
       <use xlink:href="#DejaVuSans-50"/>
       <use x="63.623047" xlink:href="#DejaVuSans-46"/>
       <use x="95.410156" xlink:href="#DejaVuSans-53"/>
      </g>
     </g>
    </g>
    <g id="ytick_7">
     <g id="line2d_13">
      <g>
       <use style="stroke:#000000;stroke-width:0.8;" x="57.6" xlink:href="#m2a8d70ffce" y="114.013484"/>
      </g>
     </g>
     <g id="text_14">
      <!-- 3.0 -->
      <g transform="translate(34.696875 117.812702)scale(0.1 -0.1)">
       <defs>
        <path d="M 40.578125 39.3125 
Q 47.65625 37.796875 51.625 33 
Q 55.609375 28.21875 55.609375 21.1875 
Q 55.609375 10.40625 48.1875 4.484375 
Q 40.765625 -1.421875 27.09375 -1.421875 
Q 22.515625 -1.421875 17.65625 -0.515625 
Q 12.796875 0.390625 7.625 2.203125 
L 7.625 11.71875 
Q 11.71875 9.328125 16.59375 8.109375 
Q 21.484375 6.890625 26.8125 6.890625 
Q 36.078125 6.890625 40.9375 10.546875 
Q 45.796875 14.203125 45.796875 21.1875 
Q 45.796875 27.640625 41.28125 31.265625 
Q 36.765625 34.90625 28.71875 34.90625 
L 20.21875 34.90625 
L 20.21875 43.015625 
L 29.109375 43.015625 
Q 36.375 43.015625 40.234375 45.921875 
Q 44.09375 48.828125 44.09375 54.296875 
Q 44.09375 59.90625 40.109375 62.90625 
Q 36.140625 65.921875 28.71875 65.921875 
Q 24.65625 65.921875 20.015625 65.03125 
Q 15.375 64.15625 9.8125 62.3125 
L 9.8125 71.09375 
Q 15.4375 72.65625 20.34375 73.4375 
Q 25.25 74.21875 29.59375 74.21875 
Q 40.828125 74.21875 47.359375 69.109375 
Q 53.90625 64.015625 53.90625 55.328125 
Q 53.90625 49.265625 50.4375 45.09375 
Q 46.96875 40.921875 40.578125 39.3125 
z
" id="DejaVuSans-51"/>
       </defs>
       <use xlink:href="#DejaVuSans-51"/>
       <use x="63.623047" xlink:href="#DejaVuSans-46"/>
       <use x="95.410156" xlink:href="#DejaVuSans-48"/>
      </g>
     </g>
    </g>
    <g id="ytick_8">
     <g id="line2d_14">
      <g>
       <use style="stroke:#000000;stroke-width:0.8;" x="57.6" xlink:href="#m2a8d70ffce" y="83.767731"/>
      </g>
     </g>
     <g id="text_15">
      <!-- 3.5 -->
      <g transform="translate(34.696875 87.56695)scale(0.1 -0.1)">
       <use xlink:href="#DejaVuSans-51"/>
       <use x="63.623047" xlink:href="#DejaVuSans-46"/>
       <use x="95.410156" xlink:href="#DejaVuSans-53"/>
      </g>
     </g>
    </g>
    <g id="ytick_9">
     <g id="line2d_15">
      <g>
       <use style="stroke:#000000;stroke-width:0.8;" x="57.6" xlink:href="#m2a8d70ffce" y="53.521978"/>
      </g>
     </g>
     <g id="text_16">
      <!-- 4.0 -->
      <g transform="translate(34.696875 57.321197)scale(0.1 -0.1)">
       <use xlink:href="#DejaVuSans-52"/>
       <use x="63.623047" xlink:href="#DejaVuSans-46"/>
       <use x="95.410156" xlink:href="#DejaVuSans-48"/>
      </g>
     </g>
    </g>
    <g id="text_17">
     <!-- noise -->
     <g transform="translate(28.617188 187.826437)rotate(-90)scale(0.1 -0.1)">
      <defs>
       <path d="M 54.890625 33.015625 
L 54.890625 0 
L 45.90625 0 
L 45.90625 32.71875 
Q 45.90625 40.484375 42.875 44.328125 
Q 39.84375 48.1875 33.796875 48.1875 
Q 26.515625 48.1875 22.3125 43.546875 
Q 18.109375 38.921875 18.109375 30.90625 
L 18.109375 0 
L 9.078125 0 
L 9.078125 54.6875 
L 18.109375 54.6875 
L 18.109375 46.1875 
Q 21.34375 51.125 25.703125 53.5625 
Q 30.078125 56 35.796875 56 
Q 45.21875 56 50.046875 50.171875 
Q 54.890625 44.34375 54.890625 33.015625 
z
" id="DejaVuSans-110"/>
       <path d="M 30.609375 48.390625 
Q 23.390625 48.390625 19.1875 42.75 
Q 14.984375 37.109375 14.984375 27.296875 
Q 14.984375 17.484375 19.15625 11.84375 
Q 23.34375 6.203125 30.609375 6.203125 
Q 37.796875 6.203125 41.984375 11.859375 
Q 46.1875 17.53125 46.1875 27.296875 
Q 46.1875 37.015625 41.984375 42.703125 
Q 37.796875 48.390625 30.609375 48.390625 
z
M 30.609375 56 
Q 42.328125 56 49.015625 48.375 
Q 55.71875 40.765625 55.71875 27.296875 
Q 55.71875 13.875 49.015625 6.21875 
Q 42.328125 -1.421875 30.609375 -1.421875 
Q 18.84375 -1.421875 12.171875 6.21875 
Q 5.515625 13.875 5.515625 27.296875 
Q 5.515625 40.765625 12.171875 48.375 
Q 18.84375 56 30.609375 56 
z
" id="DejaVuSans-111"/>
       <path d="M 44.28125 53.078125 
L 44.28125 44.578125 
Q 40.484375 46.53125 36.375 47.5 
Q 32.28125 48.484375 27.875 48.484375 
Q 21.1875 48.484375 17.84375 46.4375 
Q 14.5 44.390625 14.5 40.28125 
Q 14.5 37.15625 16.890625 35.375 
Q 19.28125 33.59375 26.515625 31.984375 
L 29.59375 31.296875 
Q 39.15625 29.25 43.1875 25.515625 
Q 47.21875 21.78125 47.21875 15.09375 
Q 47.21875 7.46875 41.1875 3.015625 
Q 35.15625 -1.421875 24.609375 -1.421875 
Q 20.21875 -1.421875 15.453125 -0.5625 
Q 10.6875 0.296875 5.421875 2 
L 5.421875 11.28125 
Q 10.40625 8.6875 15.234375 7.390625 
Q 20.0625 6.109375 24.8125 6.109375 
Q 31.15625 6.109375 34.5625 8.28125 
Q 37.984375 10.453125 37.984375 14.40625 
Q 37.984375 18.0625 35.515625 20.015625 
Q 33.0625 21.96875 24.703125 23.78125 
L 21.578125 24.515625 
Q 13.234375 26.265625 9.515625 29.90625 
Q 5.8125 33.546875 5.8125 39.890625 
Q 5.8125 47.609375 11.28125 51.796875 
Q 16.75 56 26.8125 56 
Q 31.78125 56 36.171875 55.265625 
Q 40.578125 54.546875 44.28125 53.078125 
z
" id="DejaVuSans-115"/>
      </defs>
      <use xlink:href="#DejaVuSans-110"/>
      <use x="63.378906" xlink:href="#DejaVuSans-111"/>
      <use x="124.560547" xlink:href="#DejaVuSans-105"/>
      <use x="152.34375" xlink:href="#DejaVuSans-115"/>
      <use x="204.443359" xlink:href="#DejaVuSans-101"/>
     </g>
    </g>
   </g>
   <g id="line2d_16">
    <path clip-path="url(#pdfe5659d07)" d="M 73.832727 295.488 
L 74.157382 100.735048 
L 74.482036 168.565115 
L 74.806691 132.868517 
L 75.131345 127.397291 
L 75.456 118.493254 
L 75.780655 60.85184 
L 76.429964 155.914627 
L 76.754618 97.523018 
L 77.079273 158.38871 
L 77.403927 168.442806 
L 77.728582 80.445201 
L 78.053236 128.462134 
L 78.377891 55.460841 
L 78.702545 146.697773 
L 79.0272 101.477173 
L 79.351855 96.507049 
L 79.676509 58.145451 
L 80.001164 140.340114 
L 80.325818 165.262386 
L 80.650473 94.90102 
L 80.975127 69.007592 
L 81.299782 106.735093 
L 81.624436 101.913817 
L 81.949091 166.782078 
L 82.273745 149.433027 
L 82.923055 87.217414 
L 83.247709 152.303589 
L 83.572364 133.391426 
L 83.897018 148.242796 
L 84.221673 148.898345 
L 84.546327 153.145979 
L 84.870982 132.1947 
L 85.195636 54.391606 
L 85.520291 170.739089 
L 85.844945 69.600376 
L 86.494255 167.184666 
L 86.818909 98.836733 
L 87.143564 63.023129 
L 87.468218 73.145893 
L 87.792873 94.040713 
L 88.117527 72.188675 
L 88.442182 154.316697 
L 88.766836 108.112622 
L 89.091491 113.691199 
L 89.416145 108.359194 
L 89.7408 120.357592 
L 90.065455 110.657538 
L 90.390109 153.332415 
L 90.714764 90.798716 
L 91.039418 145.831986 
L 91.364073 80.382455 
L 91.688727 61.399593 
L 92.338036 167.015531 
L 92.662691 127.501323 
L 92.987345 164.166253 
L 93.312 82.717499 
L 93.636655 62.001734 
L 93.961309 80.07066 
L 94.285964 82.971212 
L 94.610618 152.117074 
L 94.935273 68.48969 
L 95.584582 167.369235 
L 95.909236 136.045421 
L 96.233891 84.941049 
L 96.558545 135.738437 
L 96.8832 56.173181 
L 97.207855 165.869043 
L 97.532509 149.283249 
L 97.857164 90.885994 
L 98.181818 118.294176 
L 98.506473 77.275969 
L 98.831127 126.590747 
L 99.480436 54.051601 
L 99.805091 143.41991 
L 100.129745 56.683753 
L 100.4544 61.780278 
L 100.779055 147.180122 
L 101.103709 111.001615 
L 101.428364 58.969751 
L 101.753018 70.013941 
L 102.077673 116.473816 
L 102.402327 92.749471 
L 102.726982 166.229484 
L 103.051636 126.018796 
L 103.376291 122.135076 
L 103.700945 99.496521 
L 104.0256 123.228318 
L 104.350255 157.225553 
L 104.674909 104.966291 
L 104.999564 129.716443 
L 105.324218 57.755222 
L 105.648873 151.936868 
L 105.973527 69.059772 
L 106.298182 167.652479 
L 106.622836 161.35718 
L 106.947491 163.741642 
L 107.272145 54.290313 
L 107.5968 94.467047 
L 107.921455 106.206866 
L 108.246109 152.139803 
L 108.570764 167.061233 
L 108.895418 111.855433 
L 109.220073 101.479118 
L 109.544727 125.034951 
L 109.869382 132.008886 
L 110.194036 95.814993 
L 110.518691 88.734949 
L 110.843345 113.768704 
L 111.168 109.255867 
L 111.492655 170.173504 
L 111.817309 144.743488 
L 112.141964 61.299739 
L 112.466618 79.453147 
L 112.791273 81.808973 
L 113.115927 124.966582 
L 113.440582 103.247107 
L 113.765236 64.214656 
L 114.089891 144.332716 
L 114.414545 107.39053 
L 114.7392 152.590754 
L 115.063855 138.028673 
L 115.388509 148.427028 
L 115.713164 55.52283 
L 116.037818 103.883075 
L 116.362473 130.279773 
L 116.687127 60.883821 
L 117.011782 148.182216 
L 117.336436 60.592026 
L 117.661091 162.992702 
L 117.985745 107.148904 
L 118.3104 131.891812 
L 118.635055 75.265595 
L 118.959709 68.835398 
L 119.284364 155.920634 
L 119.609018 86.796775 
L 119.933673 108.08306 
L 120.258327 169.252425 
L 120.907636 88.691294 
L 121.232291 84.982706 
L 121.8816 58.187418 
L 122.206255 140.880508 
L 122.530909 109.063152 
L 122.855564 163.215612 
L 123.180218 107.696589 
L 123.504873 135.335928 
L 123.829527 72.584995 
L 124.154182 134.78211 
L 124.478836 82.557205 
L 124.803491 117.235389 
L 125.128145 100.066842 
L 125.4528 149.459982 
L 125.777455 129.59747 
L 126.102109 131.5681 
L 126.426764 166.397111 
L 126.751418 83.387804 
L 127.076073 94.001736 
L 127.400727 171.753732 
L 128.050036 76.927858 
L 128.374691 159.722531 
L 128.699345 124.526604 
L 129.024 57.364564 
L 129.348655 139.309872 
L 129.673309 141.15528 
L 129.997964 93.905567 
L 130.322618 86.06215 
L 130.647273 148.743553 
L 130.971927 105.912185 
L 131.296582 138.858503 
L 131.621236 97.357202 
L 132.270545 119.010891 
L 132.5952 88.061087 
L 132.919855 134.312542 
L 133.244509 64.859246 
L 133.569164 86.531148 
L 133.893818 70.236338 
L 134.218473 147.376362 
L 134.543127 143.087971 
L 134.867782 104.455577 
L 135.192436 157.443508 
L 135.517091 64.960215 
L 135.841745 157.417809 
L 136.1664 115.682175 
L 136.491055 136.148304 
L 136.815709 128.131837 
L 137.140364 64.274501 
L 137.465018 130.281458 
L 137.789673 157.271434 
L 138.114327 57.048786 
L 138.438982 124.444371 
L 138.763636 120.298796 
L 139.088291 154.972809 
L 139.412945 97.91778 
L 139.7376 164.954229 
L 140.062255 163.218425 
L 140.386909 172.146891 
L 140.711564 156.108026 
L 141.036218 105.494452 
L 141.360873 112.795586 
L 141.685527 170.177722 
L 142.010182 74.98427 
L 142.334836 78.792011 
L 142.659491 108.986945 
L 142.984145 115.176039 
L 143.3088 173.62067 
L 143.633455 61.719285 
L 144.607418 173.295408 
L 144.932073 81.873378 
L 145.256727 165.537654 
L 145.581382 166.884922 
L 145.906036 114.825005 
L 146.230691 148.750129 
L 146.555345 58.025994 
L 146.88 53.650799 
L 147.529309 136.511962 
L 147.853964 120.343917 
L 148.178618 132.06233 
L 148.503273 137.755443 
L 148.827927 158.690256 
L 149.152582 163.604059 
L 149.801891 86.147807 
L 150.126545 130.408526 
L 150.4512 139.708424 
L 150.775855 138.426556 
L 151.100509 123.478549 
L 151.425164 57.600531 
L 151.749818 113.862861 
L 152.074473 144.920114 
L 152.399127 138.270614 
L 152.723782 172.26512 
L 153.048436 108.804239 
L 153.373091 106.852375 
L 153.697745 156.560342 
L 154.0224 108.943282 
L 154.347055 122.614702 
L 154.671709 158.822717 
L 154.996364 62.075926 
L 155.321018 118.694202 
L 155.645673 147.165952 
L 156.294982 87.389398 
L 156.619636 92.005512 
L 156.944291 87.266421 
L 157.268945 64.095088 
L 157.5936 140.915552 
L 157.918255 59.729883 
L 158.242909 106.057927 
L 158.567564 69.175956 
L 158.892218 122.939094 
L 159.216873 83.223176 
L 159.541527 60.409978 
L 160.190836 84.729037 
L 160.515491 59.766878 
L 160.840145 74.071381 
L 161.1648 97.457528 
L 161.489455 155.770581 
L 161.814109 144.135493 
L 162.138764 144.50962 
L 162.463418 160.560513 
L 162.788073 101.045653 
L 163.112727 122.912475 
L 163.437382 107.765818 
L 163.762036 103.454563 
L 164.086691 133.420432 
L 164.411345 67.307178 
L 164.736 164.709327 
L 165.060655 70.57341 
L 165.709964 169.590661 
L 166.359273 83.578127 
L 166.683927 145.529915 
L 167.008582 87.499542 
L 167.333236 91.421074 
L 167.657891 61.386819 
L 167.982545 94.146624 
L 168.3072 102.788974 
L 168.631855 152.235515 
L 168.956509 64.811502 
L 169.281164 63.291812 
L 169.605818 154.803243 
L 169.930473 158.505899 
L 170.255127 61.093721 
L 170.579782 158.609066 
L 170.904436 153.618085 
L 171.229091 88.901215 
L 171.553745 61.767926 
L 171.8784 142.320665 
L 172.203055 97.386238 
L 172.527709 123.422137 
L 172.852364 172.056475 
L 173.177018 165.387969 
L 173.501673 57.554272 
L 173.826327 138.075579 
L 174.150982 84.529971 
L 174.475636 138.482381 
L 174.800291 85.623731 
L 175.124945 150.54995 
L 175.4496 105.466986 
L 175.774255 158.661928 
L 176.098909 151.338546 
L 176.748218 64.173934 
L 177.072873 128.676233 
L 177.397527 97.063251 
L 177.722182 148.685439 
L 178.046836 88.329712 
L 178.371491 161.393002 
L 178.696145 126.060519 
L 179.0208 145.534792 
L 179.345455 141.684999 
L 179.670109 172.958971 
L 179.994764 165.719031 
L 180.319418 72.487714 
L 180.968727 167.795337 
L 181.293382 97.663867 
L 181.618036 105.526714 
L 181.942691 128.45253 
L 182.592 77.536162 
L 182.916655 83.140806 
L 183.241309 132.595058 
L 183.565964 118.321196 
L 183.890618 137.32779 
L 184.215273 137.332124 
L 184.539927 124.244332 
L 185.189236 58.792977 
L 185.513891 157.983805 
L 185.838545 155.551559 
L 186.1632 77.040487 
L 186.487855 163.675382 
L 186.812509 97.036171 
L 187.137164 168.430782 
L 187.461818 149.645473 
L 187.786473 117.347603 
L 188.111127 139.175691 
L 188.435782 68.61669 
L 188.760436 64.403589 
L 189.409745 141.039403 
L 189.7344 55.317989 
L 190.059055 113.394424 
L 190.383709 78.420369 
L 190.708364 65.852343 
L 191.033018 89.181347 
L 191.357673 147.994603 
L 191.682327 99.06054 
L 192.006982 81.413709 
L 192.331636 76.375939 
L 192.656291 121.136302 
L 192.980945 93.853732 
L 193.3056 88.680683 
L 193.954909 58.659715 
L 194.279564 136.34288 
L 194.604218 114.317976 
L 194.928873 101.833231 
L 195.253527 162.94523 
L 195.578182 144.29684 
L 195.902836 62.214896 
L 196.227491 153.031292 
L 196.552145 151.601819 
L 196.8768 109.795809 
L 197.201455 88.223236 
L 197.850764 110.138077 
L 198.175418 137.164557 
L 198.824727 152.563995 
L 199.149382 106.090186 
L 199.474036 92.000822 
L 199.798691 153.647393 
L 200.123345 55.872949 
L 200.448 172.570215 
L 200.772655 61.414053 
L 201.097309 55.237878 
L 201.746618 171.619061 
L 202.071273 139.334552 
L 202.395927 56.420667 
L 202.720582 91.346152 
L 203.045236 93.984064 
L 203.369891 98.374176 
L 203.694545 119.627531 
L 204.0192 86.340063 
L 204.343855 68.131226 
L 204.668509 146.575688 
L 204.993164 53.568 
L 205.317818 147.264313 
L 205.642473 74.290928 
L 205.967127 152.242448 
L 206.291782 81.070066 
L 206.616436 156.538639 
L 206.941091 140.250495 
L 207.265745 159.288495 
L 207.5904 100.378656 
L 207.915055 143.065383 
L 208.239709 63.597677 
L 208.564364 118.220218 
L 208.889018 128.722648 
L 209.213673 123.580045 
L 209.538327 121.019106 
L 209.862982 74.704512 
L 210.187636 135.895508 
L 210.512291 117.287971 
L 210.836945 126.436062 
L 211.1616 90.918861 
L 211.486255 140.466304 
L 211.810909 127.240621 
L 212.135564 134.726621 
L 212.460218 108.293305 
L 212.784873 124.337713 
L 213.109527 64.909363 
L 213.434182 158.753758 
L 214.083491 68.304514 
L 214.408145 152.612061 
L 214.7328 158.064175 
L 215.057455 170.671647 
L 215.382109 92.137898 
L 215.706764 164.679312 
L 216.031418 81.906011 
L 216.356073 146.783455 
L 216.680727 147.934826 
L 217.005382 87.834292 
L 217.330036 97.919532 
L 217.654691 111.977817 
L 217.979345 86.226332 
L 218.304 88.141104 
L 218.628655 63.061956 
L 218.953309 91.656918 
L 219.277964 165.464533 
L 219.602618 86.872137 
L 219.927273 141.258472 
L 220.251927 55.757034 
L 220.901236 158.282072 
L 221.225891 69.566135 
L 221.8752 82.259045 
L 222.199855 103.88181 
L 222.524509 74.771543 
L 222.849164 133.213477 
L 223.173818 155.939881 
L 223.498473 119.717768 
L 223.823127 66.424204 
L 224.147782 98.222215 
L 224.472436 151.967294 
L 224.797091 88.988564 
L 225.121745 57.751401 
L 225.4464 114.675065 
L 225.771055 60.115528 
L 226.095709 146.796925 
L 226.420364 161.458293 
L 226.745018 105.783664 
L 227.069673 120.689818 
L 227.394327 53.586387 
L 227.718982 171.08348 
L 228.043636 130.783544 
L 228.368291 125.9028 
L 228.692945 118.927882 
L 229.0176 107.206916 
L 229.342255 104.463937 
L 229.666909 135.537654 
L 229.991564 141.67353 
L 230.316218 70.50126 
L 230.640873 122.265293 
L 230.965527 117.498466 
L 231.290182 173.689468 
L 231.614836 129.58868 
L 231.939491 113.553557 
L 232.264145 147.997024 
L 232.5888 120.156492 
L 232.913455 121.431441 
L 233.238109 163.053815 
L 233.562764 155.15433 
L 233.887418 65.300019 
L 234.212073 150.88289 
L 234.536727 63.295013 
L 234.861382 123.175052 
L 235.186036 114.140219 
L 235.510691 126.655682 
L 235.835345 86.878971 
L 236.16 128.339101 
L 236.484655 151.7776 
L 236.809309 58.612716 
L 237.458618 169.66507 
L 237.783273 160.250764 
L 238.107927 102.085737 
L 238.432582 96.061534 
L 238.757236 168.103186 
L 239.081891 148.423621 
L 239.406545 138.980109 
L 239.7312 110.821681 
L 240.055855 168.435801 
L 240.380509 141.696987 
L 240.705164 88.788588 
L 241.029818 163.698077 
L 241.354473 87.192268 
L 241.679127 78.54657 
L 242.003782 155.535881 
L 242.328436 84.123063 
L 242.653091 74.412143 
L 242.977745 58.196755 
L 243.627055 100.364318 
L 243.951709 59.560735 
L 244.276364 115.563543 
L 244.601018 59.740004 
L 244.925673 123.378707 
L 245.250327 112.306994 
L 245.574982 163.999471 
L 245.899636 88.62685 
L 246.224291 115.99049 
L 246.548945 54.625073 
L 246.8736 96.257185 
L 247.198255 61.941949 
L 247.847564 145.323602 
L 248.172218 79.040677 
L 248.496873 75.160261 
L 248.821527 77.849594 
L 249.146182 75.905881 
L 249.470836 117.948451 
L 249.795491 78.441512 
L 250.120145 70.34817 
L 250.4448 114.755226 
L 250.769455 127.006106 
L 251.094109 88.369684 
L 251.418764 164.210697 
L 251.743418 72.143117 
L 252.068073 167.093858 
L 252.392727 68.220614 
L 252.717382 161.284517 
L 253.042036 58.857349 
L 253.366691 84.620869 
L 253.691345 89.213278 
L 254.016 59.538661 
L 254.340655 66.297694 
L 254.665309 79.089506 
L 254.989964 114.665883 
L 255.314618 172.099437 
L 255.639273 141.724469 
L 255.963927 135.303108 
L 256.288582 99.384229 
L 256.613236 133.611678 
L 256.937891 102.637978 
L 257.262545 148.981776 
L 257.5872 77.657079 
L 257.911855 78.401746 
L 258.236509 63.617599 
L 258.561164 69.629834 
L 258.885818 147.918428 
L 259.210473 147.402004 
L 259.859782 138.574443 
L 260.184436 122.836231 
L 260.509091 126.919621 
L 260.833745 145.350807 
L 261.1584 156.807498 
L 261.483055 96.509688 
L 261.807709 102.0285 
L 262.132364 161.731588 
L 262.457018 121.599969 
L 262.781673 53.8177 
L 263.106327 140.68627 
L 263.430982 63.376995 
L 263.755636 140.930357 
L 264.080291 93.076748 
L 264.404945 98.670832 
L 264.7296 70.046636 
L 265.054255 136.075791 
L 265.378909 170.392737 
L 265.703564 119.573369 
L 266.028218 112.291417 
L 266.352873 60.054204 
L 266.677527 60.373108 
L 267.002182 59.000952 
L 267.326836 90.19588 
L 267.651491 83.715741 
L 267.976145 107.197055 
L 268.3008 102.771882 
L 268.625455 117.947229 
L 268.950109 148.239126 
L 269.274764 156.785945 
L 269.599418 65.472562 
L 269.924073 123.377055 
L 270.248727 117.694698 
L 270.573382 57.304043 
L 271.222691 69.726821 
L 271.547345 106.408225 
L 271.872 66.085831 
L 272.196655 141.551284 
L 272.521309 141.416712 
L 272.845964 60.594255 
L 273.170618 144.773837 
L 273.495273 134.230924 
L 273.819927 174.081432 
L 274.144582 77.952704 
L 274.469236 141.429632 
L 274.793891 78.90624 
L 275.118545 146.915515 
L 275.4432 150.40595 
L 275.767855 125.691652 
L 276.092509 87.267024 
L 276.417164 168.366755 
L 276.741818 58.74726 
L 277.066473 168.948667 
L 277.391127 59.356329 
L 278.040436 119.679754 
L 278.365091 174.420026 
L 278.689745 72.638141 
L 279.0144 113.354486 
L 279.339055 112.315573 
L 279.663709 124.588735 
L 279.988364 120.707097 
L 280.313018 106.289608 
L 280.637673 123.794926 
L 280.962327 67.628921 
L 281.286982 90.318716 
L 281.611636 173.289829 
L 281.936291 154.385307 
L 282.260945 61.649801 
L 282.5856 165.865041 
L 282.910255 54.829169 
L 283.234909 60.895117 
L 283.559564 125.76037 
L 283.884218 123.154564 
L 284.208873 150.685416 
L 284.533527 148.486893 
L 285.182836 165.046575 
L 285.507491 134.950613 
L 285.832145 173.370947 
L 286.1568 116.530781 
L 286.481455 85.212602 
L 286.806109 70.887728 
L 287.130764 62.781181 
L 287.455418 82.642084 
L 287.780073 67.642497 
L 288.104727 106.538961 
L 288.429382 172.994065 
L 288.754036 68.833836 
L 289.403345 115.899584 
L 289.728 121.350754 
L 290.052655 56.601087 
L 290.377309 171.008287 
L 290.701964 135.459647 
L 291.026618 163.90357 
L 291.351273 94.899782 
L 291.675927 155.673891 
L 292.000582 167.320016 
L 292.325236 155.4519 
L 292.649891 114.685378 
L 292.974545 146.125645 
L 293.2992 107.410598 
L 293.623855 83.189774 
L 293.948509 154.446552 
L 294.273164 128.519281 
L 294.597818 125.954336 
L 294.922473 144.519193 
L 295.247127 103.356746 
L 295.571782 103.989358 
L 295.896436 108.003722 
L 296.221091 61.97269 
L 296.545745 143.39445 
L 296.8704 106.793026 
L 297.195055 169.340424 
L 297.519709 91.256519 
L 297.844364 118.839728 
L 298.169018 134.569535 
L 298.493673 123.78463 
L 298.818327 118.014062 
L 299.142982 70.051852 
L 299.467636 163.499348 
L 300.116945 65.941482 
L 300.4416 65.402959 
L 300.766255 118.631277 
L 301.090909 143.278396 
L 301.415564 159.250236 
L 301.740218 77.34714 
L 302.389527 144.85467 
L 302.714182 85.374329 
L 303.038836 97.509577 
L 303.363491 104.226333 
L 303.688145 141.83058 
L 304.0128 64.754004 
L 304.337455 63.224434 
L 304.662109 126.886849 
L 304.986764 122.912482 
L 305.311418 148.865869 
L 305.636073 82.818343 
L 305.960727 91.570881 
L 306.610036 138.755742 
L 306.934691 110.695657 
L 307.259345 115.977075 
L 307.584 54.080371 
L 307.908655 77.991333 
L 308.557964 164.742443 
L 308.882618 66.731948 
L 309.207273 142.676194 
L 309.531927 97.529937 
L 309.856582 157.872445 
L 310.181236 89.27116 
L 310.505891 171.003668 
L 310.830545 126.550566 
L 311.1552 121.095317 
L 311.479855 95.314967 
L 311.804509 135.471234 
L 312.129164 110.041963 
L 312.453818 122.889557 
L 312.778473 91.648986 
L 313.427782 166.932766 
L 313.752436 172.904171 
L 314.077091 58.273879 
L 314.401745 90.744794 
L 314.7264 78.741465 
L 315.051055 153.036111 
L 315.375709 84.387306 
L 315.700364 59.489743 
L 316.025018 126.142839 
L 316.349673 81.709403 
L 316.674327 166.992224 
L 316.998982 77.63908 
L 317.323636 101.360336 
L 317.648291 74.94351 
L 317.972945 104.092793 
L 318.2976 143.268125 
L 318.622255 124.73791 
L 318.946909 81.875698 
L 319.271564 146.283118 
L 319.920873 69.001301 
L 320.245527 128.861418 
L 320.570182 101.822573 
L 321.219491 163.731953 
L 321.544145 114.693468 
L 321.8688 164.972404 
L 322.193455 153.744513 
L 322.518109 89.988777 
L 322.842764 157.110448 
L 323.167418 155.839801 
L 323.492073 137.899639 
L 323.816727 171.562926 
L 324.141382 92.173493 
L 324.466036 118.714086 
L 324.790691 164.260379 
L 325.115345 158.309126 
L 325.764655 85.995373 
L 326.089309 138.239523 
L 326.413964 151.452231 
L 327.063273 69.586361 
L 327.712582 88.216727 
L 328.037236 89.562159 
L 328.361891 55.148755 
L 328.686545 74.06672 
L 329.0112 65.058421 
L 329.335855 79.050712 
L 329.660509 155.743769 
L 329.985164 152.172823 
L 330.309818 121.200182 
L 330.634473 134.910316 
L 330.959127 92.318713 
L 331.608436 140.018314 
L 332.257745 73.712359 
L 332.5824 166.706747 
L 332.907055 70.516243 
L 333.231709 149.408193 
L 333.556364 154.467783 
L 333.881018 67.065839 
L 334.205673 139.876737 
L 334.530327 99.647177 
L 334.854982 130.041142 
L 335.179636 121.64624 
L 335.828945 59.718328 
L 336.1536 64.632658 
L 336.478255 59.214063 
L 336.802909 78.746752 
L 337.127564 154.402894 
L 337.452218 100.534795 
L 337.776873 144.019218 
L 338.101527 145.40256 
L 338.426182 156.990389 
L 338.750836 102.052519 
L 339.075491 77.42063 
L 339.400145 160.527269 
L 339.7248 154.435059 
L 340.049455 153.687057 
L 340.374109 115.008918 
L 340.698764 55.877306 
L 341.023418 62.4172 
L 341.348073 65.083199 
L 341.672727 143.191928 
L 341.997382 163.861002 
L 342.322036 139.251029 
L 342.646691 135.169986 
L 342.971345 163.96964 
L 343.296 108.449781 
L 343.620655 93.868202 
L 343.945309 157.35289 
L 344.269964 96.13034 
L 344.594618 65.12088 
L 344.919273 65.218475 
L 345.243927 150.754524 
L 345.568582 86.561789 
L 345.893236 158.703674 
L 346.217891 74.525429 
L 346.542545 55.906924 
L 346.8672 113.569368 
L 347.191855 59.672676 
L 347.516509 159.917328 
L 348.165818 54.294308 
L 348.490473 131.642714 
L 348.815127 159.368227 
L 349.464436 132.778829 
L 350.113745 72.925723 
L 350.763055 151.079001 
L 351.087709 152.876937 
L 351.412364 133.146765 
L 351.737018 172.287848 
L 352.061673 101.819153 
L 352.386327 141.402285 
L 352.710982 114.260718 
L 353.035636 70.878212 
L 353.684945 152.38059 
L 354.0096 128.275672 
L 354.334255 144.911111 
L 354.658909 101.3341 
L 354.983564 94.5818 
L 355.308218 116.426612 
L 355.632873 115.745244 
L 355.957527 78.651748 
L 356.282182 82.203843 
L 356.606836 61.182012 
L 356.931491 172.573267 
L 357.256145 67.490735 
L 357.5808 162.180622 
L 357.905455 55.999195 
L 358.230109 129.001413 
L 358.554764 162.859736 
L 358.879418 77.742018 
L 359.204073 65.862538 
L 359.528727 105.271801 
L 359.853382 82.365087 
L 360.178036 153.697232 
L 360.827345 132.846129 
L 361.152 140.549596 
L 361.476655 99.165968 
L 361.801309 147.190894 
L 362.125964 70.647485 
L 362.450618 67.584891 
L 362.775273 125.428943 
L 363.099927 85.110867 
L 363.424582 158.8422 
L 363.749236 141.030073 
L 364.073891 155.951783 
L 364.398545 61.10273 
L 364.7232 158.491849 
L 365.047855 90.779081 
L 365.372509 73.995438 
L 365.697164 85.308334 
L 366.021818 69.264882 
L 366.346473 62.745885 
L 366.671127 122.948248 
L 366.995782 81.745677 
L 367.320436 165.664908 
L 367.969745 71.719211 
L 368.2944 84.911929 
L 368.619055 116.920015 
L 368.943709 95.101957 
L 369.268364 142.470106 
L 369.593018 79.147132 
L 369.917673 139.052219 
L 370.242327 109.05796 
L 370.566982 66.350169 
L 370.891636 126.922915 
L 371.216291 124.407119 
L 371.540945 149.292864 
L 371.8656 84.177738 
L 372.514909 173.821077 
L 372.839564 170.516061 
L 373.164218 155.590816 
L 373.488873 134.70931 
L 373.813527 124.950764 
L 374.138182 72.186383 
L 374.462836 170.274892 
L 374.787491 129.917497 
L 375.112145 105.265478 
L 375.4368 149.214351 
L 376.086109 83.290636 
L 376.410764 61.610538 
L 377.060073 119.030794 
L 377.384727 80.991794 
L 377.709382 79.187669 
L 378.034036 85.338728 
L 378.358691 84.340011 
L 378.683345 139.157407 
L 379.008 127.620955 
L 379.332655 171.458226 
L 379.657309 61.772145 
L 379.981964 116.449733 
L 380.306618 121.278989 
L 380.631273 79.054853 
L 380.955927 110.035809 
L 381.280582 112.371311 
L 381.605236 95.443457 
L 381.929891 59.247079 
L 382.254545 55.715607 
L 382.903855 161.875414 
L 383.553164 93.709017 
L 383.877818 77.791844 
L 384.202473 105.458805 
L 384.527127 65.265589 
L 384.851782 172.306921 
L 385.176436 59.370546 
L 385.501091 140.416814 
L 385.825745 69.780808 
L 386.1504 160.987458 
L 386.475055 98.684084 
L 386.799709 165.864669 
L 387.124364 57.104118 
L 387.449018 138.525661 
L 387.773673 156.590778 
L 388.098327 83.286451 
L 388.422982 135.991068 
L 388.747636 113.799976 
L 389.072291 125.349803 
L 389.396945 58.844074 
L 389.7216 59.28868 
L 390.370909 155.804811 
L 390.695564 79.086594 
L 391.020218 85.54891 
L 391.344873 157.424782 
L 391.669527 157.145017 
L 391.994182 117.829018 
L 392.318836 110.308595 
L 392.643491 74.715092 
L 392.968145 133.876811 
L 393.2928 159.415092 
L 393.617455 89.453476 
L 393.942109 133.691409 
L 394.266764 112.148 
L 394.591418 107.14697 
L 395.240727 152.782183 
L 395.565382 97.534074 
L 395.890036 146.476314 
L 396.214691 162.752504 
L 396.539345 62.819268 
L 396.864 99.897181 
L 397.188655 100.442426 
L 397.513309 66.8424 
L 397.837964 172.153339 
L 398.162618 144.776704 
L 398.487273 77.243214 
L 398.487273 77.243214 
" style="fill:none;stroke:#1f77b4;stroke-linecap:square;stroke-width:1.5;"/>
   </g>
   <g id="patch_3">
    <path d="M 57.6 307.584 
L 57.6 41.472 
" style="fill:none;stroke:#000000;stroke-linecap:square;stroke-linejoin:miter;stroke-width:0.8;"/>
   </g>
   <g id="patch_4">
    <path d="M 414.72 307.584 
L 414.72 41.472 
" style="fill:none;stroke:#000000;stroke-linecap:square;stroke-linejoin:miter;stroke-width:0.8;"/>
   </g>
   <g id="patch_5">
    <path d="M 57.6 307.584 
L 414.72 307.584 
" style="fill:none;stroke:#000000;stroke-linecap:square;stroke-linejoin:miter;stroke-width:0.8;"/>
   </g>
   <g id="patch_6">
    <path d="M 57.6 41.472 
L 414.72 41.472 
" style="fill:none;stroke:#000000;stroke-linecap:square;stroke-linejoin:miter;stroke-width:0.8;"/>
   </g>
   <g id="text_18">
    <!-- White noise in the interval [2, 4] -->
    <g transform="translate(138.9 35.472)scale(0.12 -0.12)">
     <defs>
      <path d="M 3.328125 72.90625 
L 13.28125 72.90625 
L 28.609375 11.28125 
L 43.890625 72.90625 
L 54.984375 72.90625 
L 70.3125 11.28125 
L 85.59375 72.90625 
L 95.609375 72.90625 
L 77.296875 0 
L 64.890625 0 
L 49.515625 63.28125 
L 33.984375 0 
L 21.578125 0 
z
" id="DejaVuSans-87"/>
      <path d="M 54.890625 33.015625 
L 54.890625 0 
L 45.90625 0 
L 45.90625 32.71875 
Q 45.90625 40.484375 42.875 44.328125 
Q 39.84375 48.1875 33.796875 48.1875 
Q 26.515625 48.1875 22.3125 43.546875 
Q 18.109375 38.921875 18.109375 30.90625 
L 18.109375 0 
L 9.078125 0 
L 9.078125 75.984375 
L 18.109375 75.984375 
L 18.109375 46.1875 
Q 21.34375 51.125 25.703125 53.5625 
Q 30.078125 56 35.796875 56 
Q 45.21875 56 50.046875 50.171875 
Q 54.890625 44.34375 54.890625 33.015625 
z
" id="DejaVuSans-104"/>
      <path id="DejaVuSans-32"/>
      <path d="M 41.109375 46.296875 
Q 39.59375 47.171875 37.8125 47.578125 
Q 36.03125 48 33.890625 48 
Q 26.265625 48 22.1875 43.046875 
Q 18.109375 38.09375 18.109375 28.8125 
L 18.109375 0 
L 9.078125 0 
L 9.078125 54.6875 
L 18.109375 54.6875 
L 18.109375 46.1875 
Q 20.953125 51.171875 25.484375 53.578125 
Q 30.03125 56 36.53125 56 
Q 37.453125 56 38.578125 55.875 
Q 39.703125 55.765625 41.0625 55.515625 
z
" id="DejaVuSans-114"/>
      <path d="M 2.984375 54.6875 
L 12.5 54.6875 
L 29.59375 8.796875 
L 46.6875 54.6875 
L 56.203125 54.6875 
L 35.6875 0 
L 23.484375 0 
z
" id="DejaVuSans-118"/>
      <path d="M 34.28125 27.484375 
Q 23.390625 27.484375 19.1875 25 
Q 14.984375 22.515625 14.984375 16.5 
Q 14.984375 11.71875 18.140625 8.90625 
Q 21.296875 6.109375 26.703125 6.109375 
Q 34.1875 6.109375 38.703125 11.40625 
Q 43.21875 16.703125 43.21875 25.484375 
L 43.21875 27.484375 
z
M 52.203125 31.203125 
L 52.203125 0 
L 43.21875 0 
L 43.21875 8.296875 
Q 40.140625 3.328125 35.546875 0.953125 
Q 30.953125 -1.421875 24.3125 -1.421875 
Q 15.921875 -1.421875 10.953125 3.296875 
Q 6 8.015625 6 15.921875 
Q 6 25.140625 12.171875 29.828125 
Q 18.359375 34.515625 30.609375 34.515625 
L 43.21875 34.515625 
L 43.21875 35.40625 
Q 43.21875 41.609375 39.140625 45 
Q 35.0625 48.390625 27.6875 48.390625 
Q 23 48.390625 18.546875 47.265625 
Q 14.109375 46.140625 10.015625 43.890625 
L 10.015625 52.203125 
Q 14.9375 54.109375 19.578125 55.046875 
Q 24.21875 56 28.609375 56 
Q 40.484375 56 46.34375 49.84375 
Q 52.203125 43.703125 52.203125 31.203125 
z
" id="DejaVuSans-97"/>
      <path d="M 9.421875 75.984375 
L 18.40625 75.984375 
L 18.40625 0 
L 9.421875 0 
z
" id="DejaVuSans-108"/>
      <path d="M 8.59375 75.984375 
L 29.296875 75.984375 
L 29.296875 69 
L 17.578125 69 
L 17.578125 -6.203125 
L 29.296875 -6.203125 
L 29.296875 -13.1875 
L 8.59375 -13.1875 
z
" id="DejaVuSans-91"/>
      <path d="M 11.71875 12.40625 
L 22.015625 12.40625 
L 22.015625 4 
L 14.015625 -11.625 
L 7.71875 -11.625 
L 11.71875 4 
z
" id="DejaVuSans-44"/>
      <path d="M 30.421875 75.984375 
L 30.421875 -13.1875 
L 9.71875 -13.1875 
L 9.71875 -6.203125 
L 21.390625 -6.203125 
L 21.390625 69 
L 9.71875 69 
L 9.71875 75.984375 
z
" id="DejaVuSans-93"/>
     </defs>
     <use xlink:href="#DejaVuSans-87"/>
     <use x="98.876953" xlink:href="#DejaVuSans-104"/>
     <use x="162.255859" xlink:href="#DejaVuSans-105"/>
     <use x="190.039062" xlink:href="#DejaVuSans-116"/>
     <use x="229.248047" xlink:href="#DejaVuSans-101"/>
     <use x="290.771484" xlink:href="#DejaVuSans-32"/>
     <use x="322.558594" xlink:href="#DejaVuSans-110"/>
     <use x="385.9375" xlink:href="#DejaVuSans-111"/>
     <use x="447.119141" xlink:href="#DejaVuSans-105"/>
     <use x="474.902344" xlink:href="#DejaVuSans-115"/>
     <use x="527.001953" xlink:href="#DejaVuSans-101"/>
     <use x="588.525391" xlink:href="#DejaVuSans-32"/>
     <use x="620.3125" xlink:href="#DejaVuSans-105"/>
     <use x="648.095703" xlink:href="#DejaVuSans-110"/>
     <use x="711.474609" xlink:href="#DejaVuSans-32"/>
     <use x="743.261719" xlink:href="#DejaVuSans-116"/>
     <use x="782.470703" xlink:href="#DejaVuSans-104"/>
     <use x="845.849609" xlink:href="#DejaVuSans-101"/>
     <use x="907.373047" xlink:href="#DejaVuSans-32"/>
     <use x="939.160156" xlink:href="#DejaVuSans-105"/>
     <use x="966.943359" xlink:href="#DejaVuSans-110"/>
     <use x="1030.322266" xlink:href="#DejaVuSans-116"/>
     <use x="1069.53125" xlink:href="#DejaVuSans-101"/>
     <use x="1131.054688" xlink:href="#DejaVuSans-114"/>
     <use x="1172.167969" xlink:href="#DejaVuSans-118"/>
     <use x="1231.347656" xlink:href="#DejaVuSans-97"/>
     <use x="1292.626953" xlink:href="#DejaVuSans-108"/>
     <use x="1320.410156" xlink:href="#DejaVuSans-32"/>
     <use x="1352.197266" xlink:href="#DejaVuSans-91"/>
     <use x="1391.210938" xlink:href="#DejaVuSans-50"/>
     <use x="1454.833984" xlink:href="#DejaVuSans-44"/>
     <use x="1486.621094" xlink:href="#DejaVuSans-32"/>
     <use x="1518.408203" xlink:href="#DejaVuSans-52"/>
     <use x="1582.03125" xlink:href="#DejaVuSans-93"/>
    </g>
   </g>
  </g>
 </g>
 <defs>
  <clipPath id="pdfe5659d07">
   <rect height="266.112" width="357.12" x="57.6" y="41.472"/>
  </clipPath>
 </defs>
</svg>
